<mxfile host="app.diagrams.net" modified="2022-06-29T14:52:08.847Z" agent="5.0 (Windows NT 10.0; Win64; x64) AppleWebKit/537.36 (KHTML, like Gecko) Chrome/103.0.5060.53 Safari/537.36 Edg/103.0.1264.37" etag="b9NmSQdxNQmNEcC4Efm6" version="20.0.3" type="github" pages="6">
  <diagram id="O3x6Oax62WCEpPaO45Hm" name="AQS">
    <mxGraphModel dx="979" dy="550" grid="1" gridSize="10" guides="1" tooltips="1" connect="0" arrows="1" fold="1" page="1" pageScale="1" pageWidth="827" pageHeight="1169" background="#F4F1DE" math="0" shadow="0">
      <root>
        <mxCell id="0" />
        <mxCell id="1" parent="0" />
        <mxCell id="Ee-TkQHzqjingpB5ot7m-4" style="edgeStyle=orthogonalEdgeStyle;rounded=0;orthogonalLoop=1;jettySize=auto;html=1;labelBackgroundColor=#F4F1DE;strokeColor=#E07A5F;fontColor=#393C56;" parent="1" source="Ee-TkQHzqjingpB5ot7m-1" edge="1">
          <mxGeometry relative="1" as="geometry">
            <mxPoint x="250" y="250" as="targetPoint" />
          </mxGeometry>
        </mxCell>
        <mxCell id="Ee-TkQHzqjingpB5ot7m-1" value="" style="shape=table;startSize=0;container=1;collapsible=0;childLayout=tableLayout;fillColor=#F2CC8F;strokeColor=#E07A5F;rounded=0;shadow=1;fontColor=#393C56;" parent="1" vertex="1">
          <mxGeometry x="140" y="230" width="60" height="40" as="geometry" />
        </mxCell>
        <mxCell id="Ee-TkQHzqjingpB5ot7m-2" value="" style="shape=tableRow;horizontal=0;startSize=0;swimlaneHead=0;swimlaneBody=0;top=0;left=0;bottom=0;right=0;collapsible=0;dropTarget=0;fillColor=none;points=[[0,0.5],[1,0.5]];portConstraint=eastwest;strokeColor=#E07A5F;fontColor=#393C56;" parent="Ee-TkQHzqjingpB5ot7m-1" vertex="1">
          <mxGeometry width="60" height="40" as="geometry" />
        </mxCell>
        <mxCell id="Ee-TkQHzqjingpB5ot7m-3" value="" style="shape=partialRectangle;html=1;whiteSpace=wrap;connectable=0;overflow=hidden;fillColor=none;top=0;left=0;bottom=0;right=0;pointerEvents=1;strokeColor=#E07A5F;fontColor=#393C56;" parent="Ee-TkQHzqjingpB5ot7m-2" vertex="1">
          <mxGeometry width="60" height="40" as="geometry">
            <mxRectangle width="60" height="40" as="alternateBounds" />
          </mxGeometry>
        </mxCell>
        <mxCell id="Ee-TkQHzqjingpB5ot7m-5" value="" style="shape=table;startSize=0;container=1;collapsible=0;childLayout=tableLayout;fillColor=#F2CC8F;strokeColor=#E07A5F;rounded=0;shadow=1;fontColor=#393C56;" parent="1" vertex="1">
          <mxGeometry x="250" y="230" width="60" height="40" as="geometry" />
        </mxCell>
        <mxCell id="Ee-TkQHzqjingpB5ot7m-6" value="" style="shape=tableRow;horizontal=0;startSize=0;swimlaneHead=0;swimlaneBody=0;top=0;left=0;bottom=0;right=0;collapsible=0;dropTarget=0;fillColor=none;points=[[0,0.5],[1,0.5]];portConstraint=eastwest;strokeColor=#E07A5F;fontColor=#393C56;" parent="Ee-TkQHzqjingpB5ot7m-5" vertex="1">
          <mxGeometry width="60" height="40" as="geometry" />
        </mxCell>
        <mxCell id="Ee-TkQHzqjingpB5ot7m-7" value="" style="shape=partialRectangle;html=1;whiteSpace=wrap;connectable=0;overflow=hidden;fillColor=none;top=0;left=0;bottom=0;right=0;pointerEvents=1;strokeColor=#E07A5F;fontColor=#393C56;" parent="Ee-TkQHzqjingpB5ot7m-6" vertex="1">
          <mxGeometry width="60" height="40" as="geometry">
            <mxRectangle width="60" height="40" as="alternateBounds" />
          </mxGeometry>
        </mxCell>
        <mxCell id="Ee-TkQHzqjingpB5ot7m-8" style="edgeStyle=orthogonalEdgeStyle;rounded=0;orthogonalLoop=1;jettySize=auto;html=1;labelBackgroundColor=#F4F1DE;strokeColor=#E07A5F;fontColor=#393C56;" parent="1" source="Ee-TkQHzqjingpB5ot7m-6" edge="1">
          <mxGeometry relative="1" as="geometry">
            <mxPoint x="370" y="250" as="targetPoint" />
          </mxGeometry>
        </mxCell>
        <mxCell id="Ee-TkQHzqjingpB5ot7m-9" value="" style="endArrow=classic;html=1;rounded=0;labelBackgroundColor=#F4F1DE;strokeColor=#E07A5F;fontColor=#393C56;" parent="1" edge="1">
          <mxGeometry width="50" height="50" relative="1" as="geometry">
            <mxPoint x="250" y="260" as="sourcePoint" />
            <mxPoint x="200" y="260" as="targetPoint" />
          </mxGeometry>
        </mxCell>
        <mxCell id="Ee-TkQHzqjingpB5ot7m-10" style="edgeStyle=orthogonalEdgeStyle;rounded=0;orthogonalLoop=1;jettySize=auto;html=1;labelBackgroundColor=#F4F1DE;strokeColor=#E07A5F;fontColor=#393C56;" parent="1" edge="1">
          <mxGeometry relative="1" as="geometry">
            <mxPoint x="360" y="250" as="targetPoint" />
            <mxPoint x="310" y="250" as="sourcePoint" />
          </mxGeometry>
        </mxCell>
        <mxCell id="Ee-TkQHzqjingpB5ot7m-11" value="" style="shape=table;startSize=0;container=1;collapsible=0;childLayout=tableLayout;fillColor=#F2CC8F;strokeColor=#E07A5F;rounded=0;shadow=1;fontColor=#393C56;" parent="1" vertex="1">
          <mxGeometry x="360" y="230" width="60" height="40" as="geometry" />
        </mxCell>
        <mxCell id="Ee-TkQHzqjingpB5ot7m-12" value="" style="shape=tableRow;horizontal=0;startSize=0;swimlaneHead=0;swimlaneBody=0;top=0;left=0;bottom=0;right=0;collapsible=0;dropTarget=0;fillColor=none;points=[[0,0.5],[1,0.5]];portConstraint=eastwest;strokeColor=#E07A5F;fontColor=#393C56;" parent="Ee-TkQHzqjingpB5ot7m-11" vertex="1">
          <mxGeometry width="60" height="40" as="geometry" />
        </mxCell>
        <mxCell id="Ee-TkQHzqjingpB5ot7m-13" value="" style="shape=partialRectangle;html=1;whiteSpace=wrap;connectable=0;overflow=hidden;fillColor=none;top=0;left=0;bottom=0;right=0;pointerEvents=1;strokeColor=#E07A5F;fontColor=#393C56;" parent="Ee-TkQHzqjingpB5ot7m-12" vertex="1">
          <mxGeometry width="60" height="40" as="geometry">
            <mxRectangle width="60" height="40" as="alternateBounds" />
          </mxGeometry>
        </mxCell>
        <mxCell id="Ee-TkQHzqjingpB5ot7m-15" value="" style="endArrow=classic;html=1;rounded=0;labelBackgroundColor=#F4F1DE;strokeColor=#E07A5F;fontColor=#393C56;" parent="1" edge="1">
          <mxGeometry width="50" height="50" relative="1" as="geometry">
            <mxPoint x="360" y="260" as="sourcePoint" />
            <mxPoint x="310" y="260" as="targetPoint" />
          </mxGeometry>
        </mxCell>
        <mxCell id="Ee-TkQHzqjingpB5ot7m-16" style="edgeStyle=orthogonalEdgeStyle;rounded=0;orthogonalLoop=1;jettySize=auto;html=1;labelBackgroundColor=#F4F1DE;strokeColor=#E07A5F;fontColor=#393C56;" parent="1" edge="1">
          <mxGeometry relative="1" as="geometry">
            <mxPoint x="480" y="250" as="targetPoint" />
            <mxPoint x="420" y="250" as="sourcePoint" />
          </mxGeometry>
        </mxCell>
        <mxCell id="Ee-TkQHzqjingpB5ot7m-17" style="edgeStyle=orthogonalEdgeStyle;rounded=0;orthogonalLoop=1;jettySize=auto;html=1;labelBackgroundColor=#F4F1DE;strokeColor=#E07A5F;fontColor=#393C56;" parent="1" edge="1">
          <mxGeometry relative="1" as="geometry">
            <mxPoint x="470" y="250" as="targetPoint" />
            <mxPoint x="420" y="250" as="sourcePoint" />
          </mxGeometry>
        </mxCell>
        <mxCell id="Ee-TkQHzqjingpB5ot7m-18" value="" style="shape=table;startSize=0;container=1;collapsible=0;childLayout=tableLayout;fillColor=#F2CC8F;strokeColor=#E07A5F;rounded=0;shadow=1;fontColor=#393C56;" parent="1" vertex="1">
          <mxGeometry x="470" y="230" width="60" height="40" as="geometry" />
        </mxCell>
        <mxCell id="Ee-TkQHzqjingpB5ot7m-19" value="" style="shape=tableRow;horizontal=0;startSize=0;swimlaneHead=0;swimlaneBody=0;top=0;left=0;bottom=0;right=0;collapsible=0;dropTarget=0;fillColor=none;points=[[0,0.5],[1,0.5]];portConstraint=eastwest;strokeColor=#E07A5F;fontColor=#393C56;" parent="Ee-TkQHzqjingpB5ot7m-18" vertex="1">
          <mxGeometry width="60" height="40" as="geometry" />
        </mxCell>
        <mxCell id="Ee-TkQHzqjingpB5ot7m-20" value="" style="shape=partialRectangle;html=1;whiteSpace=wrap;connectable=0;overflow=hidden;fillColor=none;top=0;left=0;bottom=0;right=0;pointerEvents=1;strokeColor=#E07A5F;fontColor=#393C56;" parent="Ee-TkQHzqjingpB5ot7m-19" vertex="1">
          <mxGeometry width="60" height="40" as="geometry">
            <mxRectangle width="60" height="40" as="alternateBounds" />
          </mxGeometry>
        </mxCell>
        <mxCell id="Ee-TkQHzqjingpB5ot7m-21" value="" style="endArrow=classic;html=1;rounded=0;labelBackgroundColor=#F4F1DE;strokeColor=#E07A5F;fontColor=#393C56;" parent="1" edge="1">
          <mxGeometry width="50" height="50" relative="1" as="geometry">
            <mxPoint x="470" y="260" as="sourcePoint" />
            <mxPoint x="420" y="260" as="targetPoint" />
          </mxGeometry>
        </mxCell>
        <mxCell id="Ee-TkQHzqjingpB5ot7m-22" style="edgeStyle=orthogonalEdgeStyle;rounded=0;orthogonalLoop=1;jettySize=auto;html=1;labelBackgroundColor=#F4F1DE;strokeColor=#E07A5F;fontColor=#393C56;" parent="1" edge="1">
          <mxGeometry relative="1" as="geometry">
            <mxPoint x="590" y="250" as="targetPoint" />
            <mxPoint x="530" y="250" as="sourcePoint" />
          </mxGeometry>
        </mxCell>
        <mxCell id="Ee-TkQHzqjingpB5ot7m-23" style="edgeStyle=orthogonalEdgeStyle;rounded=0;orthogonalLoop=1;jettySize=auto;html=1;labelBackgroundColor=#F4F1DE;strokeColor=#E07A5F;fontColor=#393C56;" parent="1" edge="1">
          <mxGeometry relative="1" as="geometry">
            <mxPoint x="580" y="250" as="targetPoint" />
            <mxPoint x="530" y="250" as="sourcePoint" />
          </mxGeometry>
        </mxCell>
        <mxCell id="Ee-TkQHzqjingpB5ot7m-24" value="" style="shape=table;startSize=0;container=1;collapsible=0;childLayout=tableLayout;fillColor=#F2CC8F;strokeColor=#E07A5F;rounded=0;shadow=1;fontColor=#393C56;" parent="1" vertex="1">
          <mxGeometry x="580" y="230" width="60" height="40" as="geometry" />
        </mxCell>
        <mxCell id="Ee-TkQHzqjingpB5ot7m-25" value="" style="shape=tableRow;horizontal=0;startSize=0;swimlaneHead=0;swimlaneBody=0;top=0;left=0;bottom=0;right=0;collapsible=0;dropTarget=0;fillColor=none;points=[[0,0.5],[1,0.5]];portConstraint=eastwest;strokeColor=#E07A5F;fontColor=#393C56;" parent="Ee-TkQHzqjingpB5ot7m-24" vertex="1">
          <mxGeometry width="60" height="40" as="geometry" />
        </mxCell>
        <mxCell id="Ee-TkQHzqjingpB5ot7m-26" value="" style="shape=partialRectangle;html=1;whiteSpace=wrap;connectable=0;overflow=hidden;fillColor=none;top=0;left=0;bottom=0;right=0;pointerEvents=1;strokeColor=#E07A5F;fontColor=#393C56;" parent="Ee-TkQHzqjingpB5ot7m-25" vertex="1">
          <mxGeometry width="60" height="40" as="geometry">
            <mxRectangle width="60" height="40" as="alternateBounds" />
          </mxGeometry>
        </mxCell>
        <mxCell id="Ee-TkQHzqjingpB5ot7m-27" value="" style="endArrow=classic;html=1;rounded=0;labelBackgroundColor=#F4F1DE;strokeColor=#E07A5F;fontColor=#393C56;" parent="1" edge="1">
          <mxGeometry width="50" height="50" relative="1" as="geometry">
            <mxPoint x="580" y="260" as="sourcePoint" />
            <mxPoint x="530" y="260" as="targetPoint" />
          </mxGeometry>
        </mxCell>
        <mxCell id="Ee-TkQHzqjingpB5ot7m-30" style="edgeStyle=orthogonalEdgeStyle;curved=1;rounded=0;orthogonalLoop=1;jettySize=auto;html=1;entryX=0.527;entryY=0.026;entryDx=0;entryDy=0;entryPerimeter=0;fontFamily=Comic Sans MS;fontSize=18;labelBackgroundColor=#F4F1DE;strokeColor=#3A5431;fontColor=#393C56;fillColor=#6d8764;" parent="1" source="Ee-TkQHzqjingpB5ot7m-28" target="Ee-TkQHzqjingpB5ot7m-2" edge="1">
          <mxGeometry relative="1" as="geometry" />
        </mxCell>
        <mxCell id="Ee-TkQHzqjingpB5ot7m-28" value="&lt;font style=&quot;font-size: 18px;&quot; face=&quot;Comic Sans MS&quot;&gt;&lt;b&gt;head&lt;/b&gt;&lt;/font&gt;" style="text;html=1;strokeColor=#3A5431;fillColor=#6d8764;align=center;verticalAlign=middle;whiteSpace=wrap;rounded=1;shadow=1;fontColor=#ffffff;" parent="1" vertex="1">
          <mxGeometry x="140" y="140" width="60" height="30" as="geometry" />
        </mxCell>
        <mxCell id="Ee-TkQHzqjingpB5ot7m-32" style="edgeStyle=orthogonalEdgeStyle;curved=1;rounded=0;orthogonalLoop=1;jettySize=auto;html=1;entryX=0.5;entryY=0;entryDx=0;entryDy=0;entryPerimeter=0;fontFamily=Comic Sans MS;fontSize=18;labelBackgroundColor=#F4F1DE;strokeColor=#3A5431;fontColor=#393C56;fillColor=#6d8764;" parent="1" source="Ee-TkQHzqjingpB5ot7m-31" target="Ee-TkQHzqjingpB5ot7m-25" edge="1">
          <mxGeometry relative="1" as="geometry" />
        </mxCell>
        <mxCell id="Ee-TkQHzqjingpB5ot7m-31" value="&lt;font style=&quot;font-size: 18px;&quot; face=&quot;Comic Sans MS&quot;&gt;&lt;b&gt;tail&lt;/b&gt;&lt;/font&gt;" style="text;html=1;strokeColor=#3A5431;fillColor=#6d8764;align=center;verticalAlign=middle;whiteSpace=wrap;rounded=1;shadow=1;fontColor=#ffffff;" parent="1" vertex="1">
          <mxGeometry x="580" y="140" width="60" height="30" as="geometry" />
        </mxCell>
      </root>
    </mxGraphModel>
  </diagram>
  <diagram name="addNode" id="Vs04yvLvRkoKd8Y7bNBC">
    <mxGraphModel dx="979" dy="550" grid="1" gridSize="10" guides="1" tooltips="1" connect="0" arrows="1" fold="1" page="1" pageScale="1" pageWidth="827" pageHeight="1169" background="#F4F1DE" math="0" shadow="0">
      <root>
        <mxCell id="KNp7AIw2lC0-q2BaCLb4-0" />
        <mxCell id="KNp7AIw2lC0-q2BaCLb4-1" parent="KNp7AIw2lC0-q2BaCLb4-0" />
        <mxCell id="KNp7AIw2lC0-q2BaCLb4-2" style="edgeStyle=orthogonalEdgeStyle;rounded=0;orthogonalLoop=1;jettySize=auto;html=1;labelBackgroundColor=#F4F1DE;strokeColor=#E07A5F;fontColor=#393C56;" parent="KNp7AIw2lC0-q2BaCLb4-1" source="KNp7AIw2lC0-q2BaCLb4-3" edge="1">
          <mxGeometry relative="1" as="geometry">
            <mxPoint x="250" y="250" as="targetPoint" />
          </mxGeometry>
        </mxCell>
        <mxCell id="KNp7AIw2lC0-q2BaCLb4-3" value="" style="shape=table;startSize=0;container=1;collapsible=0;childLayout=tableLayout;fillColor=#F2CC8F;strokeColor=#E07A5F;rounded=0;shadow=1;fontColor=#393C56;" parent="KNp7AIw2lC0-q2BaCLb4-1" vertex="1">
          <mxGeometry x="140" y="230" width="60" height="40" as="geometry" />
        </mxCell>
        <mxCell id="KNp7AIw2lC0-q2BaCLb4-4" value="" style="shape=tableRow;horizontal=0;startSize=0;swimlaneHead=0;swimlaneBody=0;top=0;left=0;bottom=0;right=0;collapsible=0;dropTarget=0;fillColor=none;points=[[0,0.5],[1,0.5]];portConstraint=eastwest;strokeColor=#E07A5F;fontColor=#393C56;" parent="KNp7AIw2lC0-q2BaCLb4-3" vertex="1">
          <mxGeometry width="60" height="40" as="geometry" />
        </mxCell>
        <mxCell id="KNp7AIw2lC0-q2BaCLb4-5" value="" style="shape=partialRectangle;html=1;whiteSpace=wrap;connectable=0;overflow=hidden;fillColor=none;top=0;left=0;bottom=0;right=0;pointerEvents=1;strokeColor=#E07A5F;fontColor=#393C56;" parent="KNp7AIw2lC0-q2BaCLb4-4" vertex="1">
          <mxGeometry width="60" height="40" as="geometry">
            <mxRectangle width="60" height="40" as="alternateBounds" />
          </mxGeometry>
        </mxCell>
        <mxCell id="KNp7AIw2lC0-q2BaCLb4-6" value="" style="shape=table;startSize=0;container=1;collapsible=0;childLayout=tableLayout;fillColor=#F2CC8F;strokeColor=#E07A5F;rounded=0;shadow=1;fontColor=#393C56;" parent="KNp7AIw2lC0-q2BaCLb4-1" vertex="1">
          <mxGeometry x="250" y="230" width="60" height="40" as="geometry" />
        </mxCell>
        <mxCell id="KNp7AIw2lC0-q2BaCLb4-7" value="" style="shape=tableRow;horizontal=0;startSize=0;swimlaneHead=0;swimlaneBody=0;top=0;left=0;bottom=0;right=0;collapsible=0;dropTarget=0;fillColor=none;points=[[0,0.5],[1,0.5]];portConstraint=eastwest;strokeColor=#E07A5F;fontColor=#393C56;" parent="KNp7AIw2lC0-q2BaCLb4-6" vertex="1">
          <mxGeometry width="60" height="40" as="geometry" />
        </mxCell>
        <mxCell id="KNp7AIw2lC0-q2BaCLb4-8" value="" style="shape=partialRectangle;html=1;whiteSpace=wrap;connectable=0;overflow=hidden;fillColor=none;top=0;left=0;bottom=0;right=0;pointerEvents=1;strokeColor=#E07A5F;fontColor=#393C56;" parent="KNp7AIw2lC0-q2BaCLb4-7" vertex="1">
          <mxGeometry width="60" height="40" as="geometry">
            <mxRectangle width="60" height="40" as="alternateBounds" />
          </mxGeometry>
        </mxCell>
        <mxCell id="KNp7AIw2lC0-q2BaCLb4-9" style="edgeStyle=orthogonalEdgeStyle;rounded=0;orthogonalLoop=1;jettySize=auto;html=1;labelBackgroundColor=#F4F1DE;strokeColor=#E07A5F;fontColor=#393C56;" parent="KNp7AIw2lC0-q2BaCLb4-1" source="KNp7AIw2lC0-q2BaCLb4-7" edge="1">
          <mxGeometry relative="1" as="geometry">
            <mxPoint x="370" y="250" as="targetPoint" />
          </mxGeometry>
        </mxCell>
        <mxCell id="KNp7AIw2lC0-q2BaCLb4-10" value="" style="endArrow=classic;html=1;rounded=0;labelBackgroundColor=#F4F1DE;strokeColor=#E07A5F;fontColor=#393C56;" parent="KNp7AIw2lC0-q2BaCLb4-1" edge="1">
          <mxGeometry width="50" height="50" relative="1" as="geometry">
            <mxPoint x="250" y="260" as="sourcePoint" />
            <mxPoint x="200" y="260" as="targetPoint" />
          </mxGeometry>
        </mxCell>
        <mxCell id="KNp7AIw2lC0-q2BaCLb4-11" style="edgeStyle=orthogonalEdgeStyle;rounded=0;orthogonalLoop=1;jettySize=auto;html=1;labelBackgroundColor=#F4F1DE;strokeColor=#E07A5F;fontColor=#393C56;" parent="KNp7AIw2lC0-q2BaCLb4-1" edge="1">
          <mxGeometry relative="1" as="geometry">
            <mxPoint x="360" y="250" as="targetPoint" />
            <mxPoint x="310" y="250" as="sourcePoint" />
          </mxGeometry>
        </mxCell>
        <mxCell id="KNp7AIw2lC0-q2BaCLb4-12" value="" style="shape=table;startSize=0;container=1;collapsible=0;childLayout=tableLayout;fillColor=#F2CC8F;strokeColor=#E07A5F;rounded=0;shadow=1;fontColor=#393C56;" parent="KNp7AIw2lC0-q2BaCLb4-1" vertex="1">
          <mxGeometry x="360" y="230" width="60" height="40" as="geometry" />
        </mxCell>
        <mxCell id="KNp7AIw2lC0-q2BaCLb4-13" value="" style="shape=tableRow;horizontal=0;startSize=0;swimlaneHead=0;swimlaneBody=0;top=0;left=0;bottom=0;right=0;collapsible=0;dropTarget=0;fillColor=none;points=[[0,0.5],[1,0.5]];portConstraint=eastwest;strokeColor=#E07A5F;fontColor=#393C56;" parent="KNp7AIw2lC0-q2BaCLb4-12" vertex="1">
          <mxGeometry width="60" height="40" as="geometry" />
        </mxCell>
        <mxCell id="KNp7AIw2lC0-q2BaCLb4-14" value="" style="shape=partialRectangle;html=1;whiteSpace=wrap;connectable=0;overflow=hidden;fillColor=none;top=0;left=0;bottom=0;right=0;pointerEvents=1;strokeColor=#E07A5F;fontColor=#393C56;" parent="KNp7AIw2lC0-q2BaCLb4-13" vertex="1">
          <mxGeometry width="60" height="40" as="geometry">
            <mxRectangle width="60" height="40" as="alternateBounds" />
          </mxGeometry>
        </mxCell>
        <mxCell id="KNp7AIw2lC0-q2BaCLb4-15" value="" style="endArrow=classic;html=1;rounded=0;labelBackgroundColor=#F4F1DE;strokeColor=#E07A5F;fontColor=#393C56;" parent="KNp7AIw2lC0-q2BaCLb4-1" edge="1">
          <mxGeometry width="50" height="50" relative="1" as="geometry">
            <mxPoint x="360" y="260" as="sourcePoint" />
            <mxPoint x="310" y="260" as="targetPoint" />
          </mxGeometry>
        </mxCell>
        <mxCell id="KNp7AIw2lC0-q2BaCLb4-16" style="edgeStyle=orthogonalEdgeStyle;rounded=0;orthogonalLoop=1;jettySize=auto;html=1;labelBackgroundColor=#F4F1DE;strokeColor=#E07A5F;fontColor=#393C56;" parent="KNp7AIw2lC0-q2BaCLb4-1" edge="1">
          <mxGeometry relative="1" as="geometry">
            <mxPoint x="480" y="250" as="targetPoint" />
            <mxPoint x="420" y="250" as="sourcePoint" />
          </mxGeometry>
        </mxCell>
        <mxCell id="KNp7AIw2lC0-q2BaCLb4-17" style="edgeStyle=orthogonalEdgeStyle;rounded=0;orthogonalLoop=1;jettySize=auto;html=1;labelBackgroundColor=#F4F1DE;strokeColor=#E07A5F;fontColor=#393C56;" parent="KNp7AIw2lC0-q2BaCLb4-1" edge="1">
          <mxGeometry relative="1" as="geometry">
            <mxPoint x="470" y="250" as="targetPoint" />
            <mxPoint x="420" y="250" as="sourcePoint" />
          </mxGeometry>
        </mxCell>
        <mxCell id="KNp7AIw2lC0-q2BaCLb4-18" value="" style="shape=table;startSize=0;container=1;collapsible=0;childLayout=tableLayout;fillColor=#F2CC8F;strokeColor=#E07A5F;rounded=0;shadow=1;fontColor=#393C56;" parent="KNp7AIw2lC0-q2BaCLb4-1" vertex="1">
          <mxGeometry x="470" y="230" width="60" height="40" as="geometry" />
        </mxCell>
        <mxCell id="KNp7AIw2lC0-q2BaCLb4-19" value="" style="shape=tableRow;horizontal=0;startSize=0;swimlaneHead=0;swimlaneBody=0;top=0;left=0;bottom=0;right=0;collapsible=0;dropTarget=0;fillColor=none;points=[[0,0.5],[1,0.5]];portConstraint=eastwest;strokeColor=#E07A5F;fontColor=#393C56;" parent="KNp7AIw2lC0-q2BaCLb4-18" vertex="1">
          <mxGeometry width="60" height="40" as="geometry" />
        </mxCell>
        <mxCell id="KNp7AIw2lC0-q2BaCLb4-20" value="" style="shape=partialRectangle;html=1;whiteSpace=wrap;connectable=0;overflow=hidden;fillColor=none;top=0;left=0;bottom=0;right=0;pointerEvents=1;strokeColor=#E07A5F;fontColor=#393C56;" parent="KNp7AIw2lC0-q2BaCLb4-19" vertex="1">
          <mxGeometry width="60" height="40" as="geometry">
            <mxRectangle width="60" height="40" as="alternateBounds" />
          </mxGeometry>
        </mxCell>
        <mxCell id="KNp7AIw2lC0-q2BaCLb4-21" value="" style="endArrow=classic;html=1;rounded=0;labelBackgroundColor=#F4F1DE;strokeColor=#E07A5F;fontColor=#393C56;" parent="KNp7AIw2lC0-q2BaCLb4-1" edge="1">
          <mxGeometry width="50" height="50" relative="1" as="geometry">
            <mxPoint x="470" y="260" as="sourcePoint" />
            <mxPoint x="420" y="260" as="targetPoint" />
          </mxGeometry>
        </mxCell>
        <mxCell id="KNp7AIw2lC0-q2BaCLb4-22" style="edgeStyle=orthogonalEdgeStyle;rounded=0;orthogonalLoop=1;jettySize=auto;html=1;labelBackgroundColor=#F4F1DE;strokeColor=#E07A5F;fontColor=#393C56;" parent="KNp7AIw2lC0-q2BaCLb4-1" edge="1">
          <mxGeometry relative="1" as="geometry">
            <mxPoint x="590" y="250" as="targetPoint" />
            <mxPoint x="530" y="250" as="sourcePoint" />
          </mxGeometry>
        </mxCell>
        <mxCell id="KNp7AIw2lC0-q2BaCLb4-23" style="edgeStyle=orthogonalEdgeStyle;rounded=0;orthogonalLoop=1;jettySize=auto;html=1;labelBackgroundColor=#F4F1DE;strokeColor=#E07A5F;fontColor=#393C56;" parent="KNp7AIw2lC0-q2BaCLb4-1" edge="1">
          <mxGeometry relative="1" as="geometry">
            <mxPoint x="580" y="250" as="targetPoint" />
            <mxPoint x="530" y="250" as="sourcePoint" />
          </mxGeometry>
        </mxCell>
        <mxCell id="KNp7AIw2lC0-q2BaCLb4-24" value="" style="shape=table;startSize=0;container=1;collapsible=0;childLayout=tableLayout;fillColor=#F2CC8F;strokeColor=#E07A5F;rounded=0;shadow=1;fontColor=#393C56;" parent="KNp7AIw2lC0-q2BaCLb4-1" vertex="1">
          <mxGeometry x="580" y="230" width="60" height="40" as="geometry" />
        </mxCell>
        <mxCell id="KNp7AIw2lC0-q2BaCLb4-25" value="" style="shape=tableRow;horizontal=0;startSize=0;swimlaneHead=0;swimlaneBody=0;top=0;left=0;bottom=0;right=0;collapsible=0;dropTarget=0;fillColor=none;points=[[0,0.5],[1,0.5]];portConstraint=eastwest;strokeColor=#E07A5F;fontColor=#393C56;" parent="KNp7AIw2lC0-q2BaCLb4-24" vertex="1">
          <mxGeometry width="60" height="40" as="geometry" />
        </mxCell>
        <mxCell id="KNp7AIw2lC0-q2BaCLb4-26" value="" style="shape=partialRectangle;html=1;whiteSpace=wrap;connectable=0;overflow=hidden;fillColor=none;top=0;left=0;bottom=0;right=0;pointerEvents=1;strokeColor=#E07A5F;fontColor=#393C56;" parent="KNp7AIw2lC0-q2BaCLb4-25" vertex="1">
          <mxGeometry width="60" height="40" as="geometry">
            <mxRectangle width="60" height="40" as="alternateBounds" />
          </mxGeometry>
        </mxCell>
        <mxCell id="KNp7AIw2lC0-q2BaCLb4-27" value="" style="endArrow=classic;html=1;rounded=0;labelBackgroundColor=#F4F1DE;strokeColor=#E07A5F;fontColor=#393C56;" parent="KNp7AIw2lC0-q2BaCLb4-1" edge="1">
          <mxGeometry width="50" height="50" relative="1" as="geometry">
            <mxPoint x="580" y="260" as="sourcePoint" />
            <mxPoint x="530" y="260" as="targetPoint" />
          </mxGeometry>
        </mxCell>
        <mxCell id="KNp7AIw2lC0-q2BaCLb4-28" style="edgeStyle=orthogonalEdgeStyle;curved=1;rounded=0;orthogonalLoop=1;jettySize=auto;html=1;entryX=0.527;entryY=0.026;entryDx=0;entryDy=0;entryPerimeter=0;fontFamily=Comic Sans MS;fontSize=18;labelBackgroundColor=#F4F1DE;strokeColor=#3A5431;fontColor=#393C56;fillColor=#6d8764;" parent="KNp7AIw2lC0-q2BaCLb4-1" source="KNp7AIw2lC0-q2BaCLb4-29" target="KNp7AIw2lC0-q2BaCLb4-4" edge="1">
          <mxGeometry relative="1" as="geometry" />
        </mxCell>
        <mxCell id="KNp7AIw2lC0-q2BaCLb4-29" value="&lt;font style=&quot;font-size: 18px;&quot; face=&quot;Comic Sans MS&quot;&gt;&lt;b&gt;head&lt;/b&gt;&lt;/font&gt;" style="text;html=1;strokeColor=#3A5431;fillColor=#6d8764;align=center;verticalAlign=middle;whiteSpace=wrap;rounded=1;shadow=1;fontColor=#ffffff;" parent="KNp7AIw2lC0-q2BaCLb4-1" vertex="1">
          <mxGeometry x="140" y="120" width="60" height="30" as="geometry" />
        </mxCell>
        <mxCell id="KNp7AIw2lC0-q2BaCLb4-30" style="edgeStyle=orthogonalEdgeStyle;curved=1;rounded=0;orthogonalLoop=1;jettySize=auto;html=1;entryX=0.5;entryY=0;entryDx=0;entryDy=0;entryPerimeter=0;fontFamily=Comic Sans MS;fontSize=18;labelBackgroundColor=#F4F1DE;strokeColor=#3A5431;fontColor=#393C56;fillColor=#6d8764;" parent="KNp7AIw2lC0-q2BaCLb4-1" source="KNp7AIw2lC0-q2BaCLb4-31" target="KNp7AIw2lC0-q2BaCLb4-25" edge="1">
          <mxGeometry relative="1" as="geometry" />
        </mxCell>
        <mxCell id="KNp7AIw2lC0-q2BaCLb4-31" value="&lt;font style=&quot;font-size: 18px;&quot; face=&quot;Comic Sans MS&quot;&gt;&lt;b&gt;tail&lt;/b&gt;&lt;/font&gt;" style="text;html=1;strokeColor=#3A5431;fillColor=#6d8764;align=center;verticalAlign=middle;whiteSpace=wrap;rounded=1;shadow=1;fontColor=#ffffff;" parent="KNp7AIw2lC0-q2BaCLb4-1" vertex="1">
          <mxGeometry x="580" y="130" width="60" height="30" as="geometry" />
        </mxCell>
        <mxCell id="KNp7AIw2lC0-q2BaCLb4-32" style="edgeStyle=orthogonalEdgeStyle;curved=1;rounded=0;orthogonalLoop=1;jettySize=auto;html=1;entryX=1;entryY=0.5;entryDx=0;entryDy=0;fontFamily=Comic Sans MS;fontSize=18;labelBackgroundColor=#F4F1DE;strokeColor=#005700;fontColor=#393C56;fillColor=#008a00;" parent="KNp7AIw2lC0-q2BaCLb4-1" source="KNp7AIw2lC0-q2BaCLb4-33" target="KNp7AIw2lC0-q2BaCLb4-25" edge="1">
          <mxGeometry relative="1" as="geometry" />
        </mxCell>
        <mxCell id="KNp7AIw2lC0-q2BaCLb4-33" value="&lt;b&gt;Thread-A&lt;/b&gt;" style="rounded=1;whiteSpace=wrap;html=1;shadow=1;fontFamily=Comic Sans MS;fontSize=18;fillColor=#f5f5f5;fontColor=#333333;strokeColor=#666666;" parent="KNp7AIw2lC0-q2BaCLb4-1" vertex="1">
          <mxGeometry x="800" y="150" width="120" height="60" as="geometry" />
        </mxCell>
        <mxCell id="KNp7AIw2lC0-q2BaCLb4-34" style="edgeStyle=orthogonalEdgeStyle;curved=1;rounded=0;orthogonalLoop=1;jettySize=auto;html=1;entryX=1;entryY=0.5;entryDx=0;entryDy=0;fontFamily=Comic Sans MS;fontSize=18;labelBackgroundColor=#F4F1DE;strokeColor=#005700;fontColor=#393C56;fillColor=#008a00;" parent="KNp7AIw2lC0-q2BaCLb4-1" source="KNp7AIw2lC0-q2BaCLb4-35" target="KNp7AIw2lC0-q2BaCLb4-25" edge="1">
          <mxGeometry relative="1" as="geometry" />
        </mxCell>
        <mxCell id="KNp7AIw2lC0-q2BaCLb4-35" value="&lt;b&gt;Thread-B&lt;/b&gt;" style="rounded=1;whiteSpace=wrap;html=1;shadow=1;fontFamily=Comic Sans MS;fontSize=18;fillColor=#f5f5f5;fontColor=#333333;strokeColor=#666666;" parent="KNp7AIw2lC0-q2BaCLb4-1" vertex="1">
          <mxGeometry x="800" y="320" width="120" height="60" as="geometry" />
        </mxCell>
        <mxCell id="KNp7AIw2lC0-q2BaCLb4-36" value="" style="shape=flexArrow;endArrow=classic;html=1;rounded=0;fontFamily=Comic Sans MS;fontSize=18;curved=1;labelBackgroundColor=#F4F1DE;strokeColor=#3A5431;fontColor=#393C56;fillColor=#6d8764;shadow=1;" parent="KNp7AIw2lC0-q2BaCLb4-1" edge="1">
          <mxGeometry width="50" height="50" relative="1" as="geometry">
            <mxPoint x="400" y="710" as="sourcePoint" />
            <mxPoint x="400" y="860" as="targetPoint" />
          </mxGeometry>
        </mxCell>
        <mxCell id="KNp7AIw2lC0-q2BaCLb4-37" value="&lt;font size=&quot;1&quot; face=&quot;Comic Sans MS&quot;&gt;&lt;b style=&quot;font-size: 17px;&quot;&gt;A,B线程CAS竞争让自己所在的节点成为tail节点&lt;/b&gt;&lt;/font&gt;" style="rounded=1;whiteSpace=wrap;html=1;sketch=1;fontColor=#333333;strokeColor=#666666;fillColor=#f5f5f5;shadow=0;align=center;" parent="KNp7AIw2lC0-q2BaCLb4-1" vertex="1">
          <mxGeometry x="610" y="20" width="400" height="60" as="geometry" />
        </mxCell>
        <mxCell id="KNp7AIw2lC0-q2BaCLb4-38" style="edgeStyle=orthogonalEdgeStyle;rounded=0;orthogonalLoop=1;jettySize=auto;html=1;labelBackgroundColor=#F4F1DE;strokeColor=#E07A5F;fontColor=#393C56;" parent="KNp7AIw2lC0-q2BaCLb4-1" source="KNp7AIw2lC0-q2BaCLb4-39" edge="1">
          <mxGeometry relative="1" as="geometry">
            <mxPoint x="250" y="660" as="targetPoint" />
          </mxGeometry>
        </mxCell>
        <mxCell id="KNp7AIw2lC0-q2BaCLb4-39" value="" style="shape=table;startSize=0;container=1;collapsible=0;childLayout=tableLayout;fillColor=#F2CC8F;strokeColor=#E07A5F;rounded=0;shadow=1;fontColor=#393C56;" parent="KNp7AIw2lC0-q2BaCLb4-1" vertex="1">
          <mxGeometry x="140" y="640" width="60" height="40" as="geometry" />
        </mxCell>
        <mxCell id="KNp7AIw2lC0-q2BaCLb4-40" value="" style="shape=tableRow;horizontal=0;startSize=0;swimlaneHead=0;swimlaneBody=0;top=0;left=0;bottom=0;right=0;collapsible=0;dropTarget=0;fillColor=none;points=[[0,0.5],[1,0.5]];portConstraint=eastwest;strokeColor=#E07A5F;fontColor=#393C56;" parent="KNp7AIw2lC0-q2BaCLb4-39" vertex="1">
          <mxGeometry width="60" height="40" as="geometry" />
        </mxCell>
        <mxCell id="KNp7AIw2lC0-q2BaCLb4-41" value="" style="shape=partialRectangle;html=1;whiteSpace=wrap;connectable=0;overflow=hidden;fillColor=none;top=0;left=0;bottom=0;right=0;pointerEvents=1;strokeColor=#E07A5F;fontColor=#393C56;" parent="KNp7AIw2lC0-q2BaCLb4-40" vertex="1">
          <mxGeometry width="60" height="40" as="geometry">
            <mxRectangle width="60" height="40" as="alternateBounds" />
          </mxGeometry>
        </mxCell>
        <mxCell id="KNp7AIw2lC0-q2BaCLb4-42" value="" style="shape=table;startSize=0;container=1;collapsible=0;childLayout=tableLayout;fillColor=#F2CC8F;strokeColor=#E07A5F;rounded=0;shadow=1;fontColor=#393C56;" parent="KNp7AIw2lC0-q2BaCLb4-1" vertex="1">
          <mxGeometry x="250" y="640" width="60" height="40" as="geometry" />
        </mxCell>
        <mxCell id="KNp7AIw2lC0-q2BaCLb4-43" value="" style="shape=tableRow;horizontal=0;startSize=0;swimlaneHead=0;swimlaneBody=0;top=0;left=0;bottom=0;right=0;collapsible=0;dropTarget=0;fillColor=none;points=[[0,0.5],[1,0.5]];portConstraint=eastwest;strokeColor=#E07A5F;fontColor=#393C56;" parent="KNp7AIw2lC0-q2BaCLb4-42" vertex="1">
          <mxGeometry width="60" height="40" as="geometry" />
        </mxCell>
        <mxCell id="KNp7AIw2lC0-q2BaCLb4-44" value="" style="shape=partialRectangle;html=1;whiteSpace=wrap;connectable=0;overflow=hidden;fillColor=none;top=0;left=0;bottom=0;right=0;pointerEvents=1;strokeColor=#E07A5F;fontColor=#393C56;" parent="KNp7AIw2lC0-q2BaCLb4-43" vertex="1">
          <mxGeometry width="60" height="40" as="geometry">
            <mxRectangle width="60" height="40" as="alternateBounds" />
          </mxGeometry>
        </mxCell>
        <mxCell id="KNp7AIw2lC0-q2BaCLb4-45" style="edgeStyle=orthogonalEdgeStyle;rounded=0;orthogonalLoop=1;jettySize=auto;html=1;labelBackgroundColor=#F4F1DE;strokeColor=#E07A5F;fontColor=#393C56;" parent="KNp7AIw2lC0-q2BaCLb4-1" source="KNp7AIw2lC0-q2BaCLb4-43" edge="1">
          <mxGeometry relative="1" as="geometry">
            <mxPoint x="370" y="660" as="targetPoint" />
          </mxGeometry>
        </mxCell>
        <mxCell id="KNp7AIw2lC0-q2BaCLb4-46" value="" style="endArrow=classic;html=1;rounded=0;labelBackgroundColor=#F4F1DE;strokeColor=#E07A5F;fontColor=#393C56;" parent="KNp7AIw2lC0-q2BaCLb4-1" edge="1">
          <mxGeometry width="50" height="50" relative="1" as="geometry">
            <mxPoint x="250" y="670" as="sourcePoint" />
            <mxPoint x="200" y="670" as="targetPoint" />
          </mxGeometry>
        </mxCell>
        <mxCell id="KNp7AIw2lC0-q2BaCLb4-47" style="edgeStyle=orthogonalEdgeStyle;rounded=0;orthogonalLoop=1;jettySize=auto;html=1;labelBackgroundColor=#F4F1DE;strokeColor=#E07A5F;fontColor=#393C56;" parent="KNp7AIw2lC0-q2BaCLb4-1" edge="1">
          <mxGeometry relative="1" as="geometry">
            <mxPoint x="360" y="660" as="targetPoint" />
            <mxPoint x="310" y="660" as="sourcePoint" />
          </mxGeometry>
        </mxCell>
        <mxCell id="KNp7AIw2lC0-q2BaCLb4-48" value="" style="shape=table;startSize=0;container=1;collapsible=0;childLayout=tableLayout;fillColor=#F2CC8F;strokeColor=#E07A5F;rounded=0;shadow=1;fontColor=#393C56;" parent="KNp7AIw2lC0-q2BaCLb4-1" vertex="1">
          <mxGeometry x="360" y="640" width="60" height="40" as="geometry" />
        </mxCell>
        <mxCell id="KNp7AIw2lC0-q2BaCLb4-49" value="" style="shape=tableRow;horizontal=0;startSize=0;swimlaneHead=0;swimlaneBody=0;top=0;left=0;bottom=0;right=0;collapsible=0;dropTarget=0;fillColor=none;points=[[0,0.5],[1,0.5]];portConstraint=eastwest;strokeColor=#E07A5F;fontColor=#393C56;" parent="KNp7AIw2lC0-q2BaCLb4-48" vertex="1">
          <mxGeometry width="60" height="40" as="geometry" />
        </mxCell>
        <mxCell id="KNp7AIw2lC0-q2BaCLb4-50" value="" style="shape=partialRectangle;html=1;whiteSpace=wrap;connectable=0;overflow=hidden;fillColor=none;top=0;left=0;bottom=0;right=0;pointerEvents=1;strokeColor=#E07A5F;fontColor=#393C56;" parent="KNp7AIw2lC0-q2BaCLb4-49" vertex="1">
          <mxGeometry width="60" height="40" as="geometry">
            <mxRectangle width="60" height="40" as="alternateBounds" />
          </mxGeometry>
        </mxCell>
        <mxCell id="KNp7AIw2lC0-q2BaCLb4-51" value="" style="endArrow=classic;html=1;rounded=0;labelBackgroundColor=#F4F1DE;strokeColor=#E07A5F;fontColor=#393C56;" parent="KNp7AIw2lC0-q2BaCLb4-1" edge="1">
          <mxGeometry width="50" height="50" relative="1" as="geometry">
            <mxPoint x="360" y="670" as="sourcePoint" />
            <mxPoint x="310" y="670" as="targetPoint" />
          </mxGeometry>
        </mxCell>
        <mxCell id="KNp7AIw2lC0-q2BaCLb4-52" style="edgeStyle=orthogonalEdgeStyle;rounded=0;orthogonalLoop=1;jettySize=auto;html=1;labelBackgroundColor=#F4F1DE;strokeColor=#E07A5F;fontColor=#393C56;" parent="KNp7AIw2lC0-q2BaCLb4-1" edge="1">
          <mxGeometry relative="1" as="geometry">
            <mxPoint x="480" y="660" as="targetPoint" />
            <mxPoint x="420" y="660" as="sourcePoint" />
          </mxGeometry>
        </mxCell>
        <mxCell id="KNp7AIw2lC0-q2BaCLb4-53" style="edgeStyle=orthogonalEdgeStyle;rounded=0;orthogonalLoop=1;jettySize=auto;html=1;labelBackgroundColor=#F4F1DE;strokeColor=#E07A5F;fontColor=#393C56;" parent="KNp7AIw2lC0-q2BaCLb4-1" edge="1">
          <mxGeometry relative="1" as="geometry">
            <mxPoint x="470" y="660" as="targetPoint" />
            <mxPoint x="420" y="660" as="sourcePoint" />
          </mxGeometry>
        </mxCell>
        <mxCell id="KNp7AIw2lC0-q2BaCLb4-54" value="" style="shape=table;startSize=0;container=1;collapsible=0;childLayout=tableLayout;fillColor=#F2CC8F;strokeColor=#E07A5F;rounded=0;shadow=1;fontColor=#393C56;" parent="KNp7AIw2lC0-q2BaCLb4-1" vertex="1">
          <mxGeometry x="470" y="640" width="60" height="40" as="geometry" />
        </mxCell>
        <mxCell id="KNp7AIw2lC0-q2BaCLb4-55" value="" style="shape=tableRow;horizontal=0;startSize=0;swimlaneHead=0;swimlaneBody=0;top=0;left=0;bottom=0;right=0;collapsible=0;dropTarget=0;fillColor=none;points=[[0,0.5],[1,0.5]];portConstraint=eastwest;strokeColor=#E07A5F;fontColor=#393C56;" parent="KNp7AIw2lC0-q2BaCLb4-54" vertex="1">
          <mxGeometry width="60" height="40" as="geometry" />
        </mxCell>
        <mxCell id="KNp7AIw2lC0-q2BaCLb4-56" value="" style="shape=partialRectangle;html=1;whiteSpace=wrap;connectable=0;overflow=hidden;fillColor=none;top=0;left=0;bottom=0;right=0;pointerEvents=1;strokeColor=#E07A5F;fontColor=#393C56;" parent="KNp7AIw2lC0-q2BaCLb4-55" vertex="1">
          <mxGeometry width="60" height="40" as="geometry">
            <mxRectangle width="60" height="40" as="alternateBounds" />
          </mxGeometry>
        </mxCell>
        <mxCell id="KNp7AIw2lC0-q2BaCLb4-57" value="" style="endArrow=classic;html=1;rounded=0;labelBackgroundColor=#F4F1DE;strokeColor=#E07A5F;fontColor=#393C56;" parent="KNp7AIw2lC0-q2BaCLb4-1" edge="1">
          <mxGeometry width="50" height="50" relative="1" as="geometry">
            <mxPoint x="470" y="670" as="sourcePoint" />
            <mxPoint x="420" y="670" as="targetPoint" />
          </mxGeometry>
        </mxCell>
        <mxCell id="KNp7AIw2lC0-q2BaCLb4-58" style="edgeStyle=orthogonalEdgeStyle;rounded=0;orthogonalLoop=1;jettySize=auto;html=1;labelBackgroundColor=#F4F1DE;strokeColor=#E07A5F;fontColor=#393C56;" parent="KNp7AIw2lC0-q2BaCLb4-1" edge="1">
          <mxGeometry relative="1" as="geometry">
            <mxPoint x="590" y="660" as="targetPoint" />
            <mxPoint x="530" y="660" as="sourcePoint" />
          </mxGeometry>
        </mxCell>
        <mxCell id="KNp7AIw2lC0-q2BaCLb4-59" style="edgeStyle=orthogonalEdgeStyle;rounded=0;orthogonalLoop=1;jettySize=auto;html=1;labelBackgroundColor=#F4F1DE;strokeColor=#E07A5F;fontColor=#393C56;" parent="KNp7AIw2lC0-q2BaCLb4-1" edge="1">
          <mxGeometry relative="1" as="geometry">
            <mxPoint x="580" y="660" as="targetPoint" />
            <mxPoint x="530" y="660" as="sourcePoint" />
          </mxGeometry>
        </mxCell>
        <mxCell id="KNp7AIw2lC0-q2BaCLb4-60" value="" style="shape=table;startSize=0;container=1;collapsible=0;childLayout=tableLayout;fillColor=#F2CC8F;strokeColor=#E07A5F;rounded=0;shadow=1;fontColor=#393C56;" parent="KNp7AIw2lC0-q2BaCLb4-1" vertex="1">
          <mxGeometry x="580" y="640" width="60" height="40" as="geometry" />
        </mxCell>
        <mxCell id="KNp7AIw2lC0-q2BaCLb4-61" value="" style="shape=tableRow;horizontal=0;startSize=0;swimlaneHead=0;swimlaneBody=0;top=0;left=0;bottom=0;right=0;collapsible=0;dropTarget=0;fillColor=none;points=[[0,0.5],[1,0.5]];portConstraint=eastwest;strokeColor=#E07A5F;fontColor=#393C56;" parent="KNp7AIw2lC0-q2BaCLb4-60" vertex="1">
          <mxGeometry width="60" height="40" as="geometry" />
        </mxCell>
        <mxCell id="KNp7AIw2lC0-q2BaCLb4-62" value="" style="shape=partialRectangle;html=1;whiteSpace=wrap;connectable=0;overflow=hidden;fillColor=none;top=0;left=0;bottom=0;right=0;pointerEvents=1;strokeColor=#E07A5F;fontColor=#393C56;" parent="KNp7AIw2lC0-q2BaCLb4-61" vertex="1">
          <mxGeometry width="60" height="40" as="geometry">
            <mxRectangle width="60" height="40" as="alternateBounds" />
          </mxGeometry>
        </mxCell>
        <mxCell id="KNp7AIw2lC0-q2BaCLb4-63" value="" style="endArrow=classic;html=1;rounded=0;labelBackgroundColor=#F4F1DE;strokeColor=#E07A5F;fontColor=#393C56;" parent="KNp7AIw2lC0-q2BaCLb4-1" edge="1">
          <mxGeometry width="50" height="50" relative="1" as="geometry">
            <mxPoint x="580" y="670" as="sourcePoint" />
            <mxPoint x="530" y="670" as="targetPoint" />
          </mxGeometry>
        </mxCell>
        <mxCell id="KNp7AIw2lC0-q2BaCLb4-64" style="edgeStyle=orthogonalEdgeStyle;curved=1;rounded=0;orthogonalLoop=1;jettySize=auto;html=1;entryX=0.527;entryY=0.026;entryDx=0;entryDy=0;entryPerimeter=0;fontFamily=Comic Sans MS;fontSize=18;labelBackgroundColor=#F4F1DE;strokeColor=#3A5431;fontColor=#393C56;fillColor=#6d8764;" parent="KNp7AIw2lC0-q2BaCLb4-1" source="KNp7AIw2lC0-q2BaCLb4-65" target="KNp7AIw2lC0-q2BaCLb4-40" edge="1">
          <mxGeometry relative="1" as="geometry" />
        </mxCell>
        <mxCell id="KNp7AIw2lC0-q2BaCLb4-65" value="&lt;font style=&quot;font-size: 18px;&quot; face=&quot;Comic Sans MS&quot;&gt;&lt;b&gt;head&lt;/b&gt;&lt;/font&gt;" style="text;html=1;strokeColor=#3A5431;fillColor=#6d8764;align=center;verticalAlign=middle;whiteSpace=wrap;rounded=1;shadow=1;fontColor=#ffffff;" parent="KNp7AIw2lC0-q2BaCLb4-1" vertex="1">
          <mxGeometry x="140" y="530" width="60" height="30" as="geometry" />
        </mxCell>
        <mxCell id="KNp7AIw2lC0-q2BaCLb4-66" style="edgeStyle=orthogonalEdgeStyle;curved=0;rounded=1;sketch=0;orthogonalLoop=1;jettySize=auto;html=1;entryX=0.532;entryY=-0.059;entryDx=0;entryDy=0;entryPerimeter=0;shadow=1;fontFamily=Comic Sans MS;fontSize=17;fontColor=#393C56;strokeColor=#314354;fillColor=#647687;strokeWidth=4;" parent="KNp7AIw2lC0-q2BaCLb4-1" source="KNp7AIw2lC0-q2BaCLb4-67" target="KNp7AIw2lC0-q2BaCLb4-68" edge="1">
          <mxGeometry relative="1" as="geometry" />
        </mxCell>
        <mxCell id="KNp7AIw2lC0-q2BaCLb4-67" value="&lt;font style=&quot;font-size: 18px;&quot; face=&quot;Comic Sans MS&quot;&gt;&lt;b&gt;tail&lt;/b&gt;&lt;/font&gt;" style="text;html=1;strokeColor=#3A5431;fillColor=#6d8764;align=center;verticalAlign=middle;whiteSpace=wrap;rounded=1;shadow=1;fontColor=#ffffff;" parent="KNp7AIw2lC0-q2BaCLb4-1" vertex="1">
          <mxGeometry x="740" y="530" width="60" height="30" as="geometry" />
        </mxCell>
        <mxCell id="KNp7AIw2lC0-q2BaCLb4-68" value="&lt;b&gt;Thread-A&lt;/b&gt;" style="rounded=1;whiteSpace=wrap;html=1;shadow=1;fontFamily=Comic Sans MS;fontSize=18;fillColor=#f5f5f5;fontColor=#333333;strokeColor=#666666;" parent="KNp7AIw2lC0-q2BaCLb4-1" vertex="1">
          <mxGeometry x="707" y="630" width="120" height="60" as="geometry" />
        </mxCell>
        <mxCell id="KNp7AIw2lC0-q2BaCLb4-69" value="" style="endArrow=classic;html=1;rounded=0;labelBackgroundColor=#F4F1DE;strokeColor=#314354;fontColor=#393C56;fillColor=#647687;entryX=1.027;entryY=0.565;entryDx=0;entryDy=0;entryPerimeter=0;strokeWidth=4;" parent="KNp7AIw2lC0-q2BaCLb4-1" target="KNp7AIw2lC0-q2BaCLb4-61" edge="1">
          <mxGeometry width="50" height="50" relative="1" as="geometry">
            <mxPoint x="710" y="663" as="sourcePoint" />
            <mxPoint x="640" y="670" as="targetPoint" />
          </mxGeometry>
        </mxCell>
        <mxCell id="KNp7AIw2lC0-q2BaCLb4-70" style="edgeStyle=orthogonalEdgeStyle;rounded=0;orthogonalLoop=1;jettySize=auto;html=1;labelBackgroundColor=#F4F1DE;strokeColor=#E07A5F;fontColor=#393C56;" parent="KNp7AIw2lC0-q2BaCLb4-1" source="KNp7AIw2lC0-q2BaCLb4-71" edge="1">
          <mxGeometry relative="1" as="geometry">
            <mxPoint x="276.5" y="960" as="targetPoint" />
          </mxGeometry>
        </mxCell>
        <mxCell id="KNp7AIw2lC0-q2BaCLb4-71" value="" style="shape=table;startSize=0;container=1;collapsible=0;childLayout=tableLayout;fillColor=#F2CC8F;strokeColor=#E07A5F;rounded=0;shadow=1;fontColor=#393C56;" parent="KNp7AIw2lC0-q2BaCLb4-1" vertex="1">
          <mxGeometry x="166.5" y="940" width="60" height="40" as="geometry" />
        </mxCell>
        <mxCell id="KNp7AIw2lC0-q2BaCLb4-72" value="" style="shape=tableRow;horizontal=0;startSize=0;swimlaneHead=0;swimlaneBody=0;top=0;left=0;bottom=0;right=0;collapsible=0;dropTarget=0;fillColor=none;points=[[0,0.5],[1,0.5]];portConstraint=eastwest;strokeColor=#E07A5F;fontColor=#393C56;" parent="KNp7AIw2lC0-q2BaCLb4-71" vertex="1">
          <mxGeometry width="60" height="40" as="geometry" />
        </mxCell>
        <mxCell id="KNp7AIw2lC0-q2BaCLb4-73" value="" style="shape=partialRectangle;html=1;whiteSpace=wrap;connectable=0;overflow=hidden;fillColor=none;top=0;left=0;bottom=0;right=0;pointerEvents=1;strokeColor=#E07A5F;fontColor=#393C56;" parent="KNp7AIw2lC0-q2BaCLb4-72" vertex="1">
          <mxGeometry width="60" height="40" as="geometry">
            <mxRectangle width="60" height="40" as="alternateBounds" />
          </mxGeometry>
        </mxCell>
        <mxCell id="KNp7AIw2lC0-q2BaCLb4-74" value="" style="shape=table;startSize=0;container=1;collapsible=0;childLayout=tableLayout;fillColor=#F2CC8F;strokeColor=#E07A5F;rounded=0;shadow=1;fontColor=#393C56;" parent="KNp7AIw2lC0-q2BaCLb4-1" vertex="1">
          <mxGeometry x="276.5" y="940" width="60" height="40" as="geometry" />
        </mxCell>
        <mxCell id="KNp7AIw2lC0-q2BaCLb4-75" value="" style="shape=tableRow;horizontal=0;startSize=0;swimlaneHead=0;swimlaneBody=0;top=0;left=0;bottom=0;right=0;collapsible=0;dropTarget=0;fillColor=none;points=[[0,0.5],[1,0.5]];portConstraint=eastwest;strokeColor=#E07A5F;fontColor=#393C56;" parent="KNp7AIw2lC0-q2BaCLb4-74" vertex="1">
          <mxGeometry width="60" height="40" as="geometry" />
        </mxCell>
        <mxCell id="KNp7AIw2lC0-q2BaCLb4-76" value="" style="shape=partialRectangle;html=1;whiteSpace=wrap;connectable=0;overflow=hidden;fillColor=none;top=0;left=0;bottom=0;right=0;pointerEvents=1;strokeColor=#E07A5F;fontColor=#393C56;" parent="KNp7AIw2lC0-q2BaCLb4-75" vertex="1">
          <mxGeometry width="60" height="40" as="geometry">
            <mxRectangle width="60" height="40" as="alternateBounds" />
          </mxGeometry>
        </mxCell>
        <mxCell id="KNp7AIw2lC0-q2BaCLb4-77" style="edgeStyle=orthogonalEdgeStyle;rounded=0;orthogonalLoop=1;jettySize=auto;html=1;labelBackgroundColor=#F4F1DE;strokeColor=#E07A5F;fontColor=#393C56;" parent="KNp7AIw2lC0-q2BaCLb4-1" source="KNp7AIw2lC0-q2BaCLb4-75" edge="1">
          <mxGeometry relative="1" as="geometry">
            <mxPoint x="396.5" y="960" as="targetPoint" />
          </mxGeometry>
        </mxCell>
        <mxCell id="KNp7AIw2lC0-q2BaCLb4-78" value="" style="endArrow=classic;html=1;rounded=0;labelBackgroundColor=#F4F1DE;strokeColor=#E07A5F;fontColor=#393C56;" parent="KNp7AIw2lC0-q2BaCLb4-1" edge="1">
          <mxGeometry width="50" height="50" relative="1" as="geometry">
            <mxPoint x="276.5" y="970" as="sourcePoint" />
            <mxPoint x="226.5" y="970" as="targetPoint" />
          </mxGeometry>
        </mxCell>
        <mxCell id="KNp7AIw2lC0-q2BaCLb4-79" style="edgeStyle=orthogonalEdgeStyle;rounded=0;orthogonalLoop=1;jettySize=auto;html=1;labelBackgroundColor=#F4F1DE;strokeColor=#E07A5F;fontColor=#393C56;" parent="KNp7AIw2lC0-q2BaCLb4-1" edge="1">
          <mxGeometry relative="1" as="geometry">
            <mxPoint x="386.5" y="960" as="targetPoint" />
            <mxPoint x="336.5" y="960" as="sourcePoint" />
          </mxGeometry>
        </mxCell>
        <mxCell id="KNp7AIw2lC0-q2BaCLb4-80" value="" style="shape=table;startSize=0;container=1;collapsible=0;childLayout=tableLayout;fillColor=#F2CC8F;strokeColor=#E07A5F;rounded=0;shadow=1;fontColor=#393C56;" parent="KNp7AIw2lC0-q2BaCLb4-1" vertex="1">
          <mxGeometry x="386.5" y="940" width="60" height="40" as="geometry" />
        </mxCell>
        <mxCell id="KNp7AIw2lC0-q2BaCLb4-81" value="" style="shape=tableRow;horizontal=0;startSize=0;swimlaneHead=0;swimlaneBody=0;top=0;left=0;bottom=0;right=0;collapsible=0;dropTarget=0;fillColor=none;points=[[0,0.5],[1,0.5]];portConstraint=eastwest;strokeColor=#E07A5F;fontColor=#393C56;" parent="KNp7AIw2lC0-q2BaCLb4-80" vertex="1">
          <mxGeometry width="60" height="40" as="geometry" />
        </mxCell>
        <mxCell id="KNp7AIw2lC0-q2BaCLb4-82" value="" style="shape=partialRectangle;html=1;whiteSpace=wrap;connectable=0;overflow=hidden;fillColor=none;top=0;left=0;bottom=0;right=0;pointerEvents=1;strokeColor=#E07A5F;fontColor=#393C56;" parent="KNp7AIw2lC0-q2BaCLb4-81" vertex="1">
          <mxGeometry width="60" height="40" as="geometry">
            <mxRectangle width="60" height="40" as="alternateBounds" />
          </mxGeometry>
        </mxCell>
        <mxCell id="KNp7AIw2lC0-q2BaCLb4-83" value="" style="endArrow=classic;html=1;rounded=0;labelBackgroundColor=#F4F1DE;strokeColor=#E07A5F;fontColor=#393C56;" parent="KNp7AIw2lC0-q2BaCLb4-1" edge="1">
          <mxGeometry width="50" height="50" relative="1" as="geometry">
            <mxPoint x="386.5" y="970" as="sourcePoint" />
            <mxPoint x="336.5" y="970" as="targetPoint" />
          </mxGeometry>
        </mxCell>
        <mxCell id="KNp7AIw2lC0-q2BaCLb4-84" style="edgeStyle=orthogonalEdgeStyle;rounded=0;orthogonalLoop=1;jettySize=auto;html=1;labelBackgroundColor=#F4F1DE;strokeColor=#E07A5F;fontColor=#393C56;" parent="KNp7AIw2lC0-q2BaCLb4-1" edge="1">
          <mxGeometry relative="1" as="geometry">
            <mxPoint x="506.5" y="960" as="targetPoint" />
            <mxPoint x="446.5" y="960" as="sourcePoint" />
          </mxGeometry>
        </mxCell>
        <mxCell id="KNp7AIw2lC0-q2BaCLb4-85" style="edgeStyle=orthogonalEdgeStyle;rounded=0;orthogonalLoop=1;jettySize=auto;html=1;labelBackgroundColor=#F4F1DE;strokeColor=#E07A5F;fontColor=#393C56;" parent="KNp7AIw2lC0-q2BaCLb4-1" edge="1">
          <mxGeometry relative="1" as="geometry">
            <mxPoint x="496.5" y="960" as="targetPoint" />
            <mxPoint x="446.5" y="960" as="sourcePoint" />
          </mxGeometry>
        </mxCell>
        <mxCell id="KNp7AIw2lC0-q2BaCLb4-86" value="" style="shape=table;startSize=0;container=1;collapsible=0;childLayout=tableLayout;fillColor=#F2CC8F;strokeColor=#E07A5F;rounded=0;shadow=1;fontColor=#393C56;" parent="KNp7AIw2lC0-q2BaCLb4-1" vertex="1">
          <mxGeometry x="496.5" y="940" width="60" height="40" as="geometry" />
        </mxCell>
        <mxCell id="KNp7AIw2lC0-q2BaCLb4-87" value="" style="shape=tableRow;horizontal=0;startSize=0;swimlaneHead=0;swimlaneBody=0;top=0;left=0;bottom=0;right=0;collapsible=0;dropTarget=0;fillColor=none;points=[[0,0.5],[1,0.5]];portConstraint=eastwest;strokeColor=#E07A5F;fontColor=#393C56;" parent="KNp7AIw2lC0-q2BaCLb4-86" vertex="1">
          <mxGeometry width="60" height="40" as="geometry" />
        </mxCell>
        <mxCell id="KNp7AIw2lC0-q2BaCLb4-88" value="" style="shape=partialRectangle;html=1;whiteSpace=wrap;connectable=0;overflow=hidden;fillColor=none;top=0;left=0;bottom=0;right=0;pointerEvents=1;strokeColor=#E07A5F;fontColor=#393C56;" parent="KNp7AIw2lC0-q2BaCLb4-87" vertex="1">
          <mxGeometry width="60" height="40" as="geometry">
            <mxRectangle width="60" height="40" as="alternateBounds" />
          </mxGeometry>
        </mxCell>
        <mxCell id="KNp7AIw2lC0-q2BaCLb4-89" value="" style="endArrow=classic;html=1;rounded=0;labelBackgroundColor=#F4F1DE;strokeColor=#E07A5F;fontColor=#393C56;" parent="KNp7AIw2lC0-q2BaCLb4-1" edge="1">
          <mxGeometry width="50" height="50" relative="1" as="geometry">
            <mxPoint x="496.5" y="970" as="sourcePoint" />
            <mxPoint x="446.5" y="970" as="targetPoint" />
          </mxGeometry>
        </mxCell>
        <mxCell id="KNp7AIw2lC0-q2BaCLb4-90" style="edgeStyle=orthogonalEdgeStyle;rounded=0;orthogonalLoop=1;jettySize=auto;html=1;labelBackgroundColor=#F4F1DE;strokeColor=#E07A5F;fontColor=#393C56;" parent="KNp7AIw2lC0-q2BaCLb4-1" edge="1">
          <mxGeometry relative="1" as="geometry">
            <mxPoint x="616.5" y="960" as="targetPoint" />
            <mxPoint x="556.5" y="960" as="sourcePoint" />
          </mxGeometry>
        </mxCell>
        <mxCell id="KNp7AIw2lC0-q2BaCLb4-91" style="edgeStyle=orthogonalEdgeStyle;rounded=0;orthogonalLoop=1;jettySize=auto;html=1;labelBackgroundColor=#F4F1DE;strokeColor=#E07A5F;fontColor=#393C56;" parent="KNp7AIw2lC0-q2BaCLb4-1" edge="1">
          <mxGeometry relative="1" as="geometry">
            <mxPoint x="606.5" y="960" as="targetPoint" />
            <mxPoint x="556.5" y="960" as="sourcePoint" />
          </mxGeometry>
        </mxCell>
        <mxCell id="KNp7AIw2lC0-q2BaCLb4-92" value="" style="shape=table;startSize=0;container=1;collapsible=0;childLayout=tableLayout;fillColor=#F2CC8F;strokeColor=#E07A5F;rounded=0;shadow=1;fontColor=#393C56;" parent="KNp7AIw2lC0-q2BaCLb4-1" vertex="1">
          <mxGeometry x="606.5" y="940" width="60" height="40" as="geometry" />
        </mxCell>
        <mxCell id="KNp7AIw2lC0-q2BaCLb4-93" value="" style="shape=tableRow;horizontal=0;startSize=0;swimlaneHead=0;swimlaneBody=0;top=0;left=0;bottom=0;right=0;collapsible=0;dropTarget=0;fillColor=none;points=[[0,0.5],[1,0.5]];portConstraint=eastwest;strokeColor=#E07A5F;fontColor=#393C56;" parent="KNp7AIw2lC0-q2BaCLb4-92" vertex="1">
          <mxGeometry width="60" height="40" as="geometry" />
        </mxCell>
        <mxCell id="KNp7AIw2lC0-q2BaCLb4-94" value="" style="shape=partialRectangle;html=1;whiteSpace=wrap;connectable=0;overflow=hidden;fillColor=none;top=0;left=0;bottom=0;right=0;pointerEvents=1;strokeColor=#E07A5F;fontColor=#393C56;" parent="KNp7AIw2lC0-q2BaCLb4-93" vertex="1">
          <mxGeometry width="60" height="40" as="geometry">
            <mxRectangle width="60" height="40" as="alternateBounds" />
          </mxGeometry>
        </mxCell>
        <mxCell id="KNp7AIw2lC0-q2BaCLb4-95" value="" style="endArrow=classic;html=1;rounded=0;labelBackgroundColor=#F4F1DE;strokeColor=#E07A5F;fontColor=#393C56;" parent="KNp7AIw2lC0-q2BaCLb4-1" edge="1">
          <mxGeometry width="50" height="50" relative="1" as="geometry">
            <mxPoint x="606.5" y="970" as="sourcePoint" />
            <mxPoint x="556.5" y="970" as="targetPoint" />
          </mxGeometry>
        </mxCell>
        <mxCell id="KNp7AIw2lC0-q2BaCLb4-96" style="edgeStyle=orthogonalEdgeStyle;curved=1;rounded=0;orthogonalLoop=1;jettySize=auto;html=1;entryX=0.527;entryY=0.026;entryDx=0;entryDy=0;entryPerimeter=0;fontFamily=Comic Sans MS;fontSize=18;labelBackgroundColor=#F4F1DE;strokeColor=#3A5431;fontColor=#393C56;fillColor=#6d8764;" parent="KNp7AIw2lC0-q2BaCLb4-1" source="KNp7AIw2lC0-q2BaCLb4-97" target="KNp7AIw2lC0-q2BaCLb4-72" edge="1">
          <mxGeometry relative="1" as="geometry" />
        </mxCell>
        <mxCell id="KNp7AIw2lC0-q2BaCLb4-97" value="&lt;font style=&quot;font-size: 18px;&quot; face=&quot;Comic Sans MS&quot;&gt;&lt;b&gt;head&lt;/b&gt;&lt;/font&gt;" style="text;html=1;strokeColor=#3A5431;fillColor=#6d8764;align=center;verticalAlign=middle;whiteSpace=wrap;rounded=1;shadow=1;fontColor=#ffffff;" parent="KNp7AIw2lC0-q2BaCLb4-1" vertex="1">
          <mxGeometry x="166.5" y="830" width="60" height="30" as="geometry" />
        </mxCell>
        <mxCell id="KNp7AIw2lC0-q2BaCLb4-98" style="edgeStyle=orthogonalEdgeStyle;curved=0;rounded=1;sketch=0;orthogonalLoop=1;jettySize=auto;html=1;entryX=0.532;entryY=-0.059;entryDx=0;entryDy=0;entryPerimeter=0;shadow=1;fontFamily=Comic Sans MS;fontSize=17;fontColor=#393C56;strokeColor=#314354;fillColor=#647687;strokeWidth=4;" parent="KNp7AIw2lC0-q2BaCLb4-1" source="KNp7AIw2lC0-q2BaCLb4-99" target="KNp7AIw2lC0-q2BaCLb4-101" edge="1">
          <mxGeometry relative="1" as="geometry" />
        </mxCell>
        <mxCell id="KNp7AIw2lC0-q2BaCLb4-99" value="&lt;font style=&quot;font-size: 18px;&quot; face=&quot;Comic Sans MS&quot;&gt;&lt;b&gt;tail&lt;/b&gt;&lt;/font&gt;" style="text;html=1;strokeColor=#3A5431;fillColor=#6d8764;align=center;verticalAlign=middle;whiteSpace=wrap;rounded=1;shadow=1;fontColor=#ffffff;" parent="KNp7AIw2lC0-q2BaCLb4-1" vertex="1">
          <mxGeometry x="766.5" y="830" width="60" height="30" as="geometry" />
        </mxCell>
        <mxCell id="KNp7AIw2lC0-q2BaCLb4-100" style="edgeStyle=orthogonalEdgeStyle;curved=0;rounded=1;sketch=0;orthogonalLoop=1;jettySize=auto;html=1;shadow=1;fontFamily=Comic Sans MS;fontSize=17;fontColor=#393C56;strokeColor=#3A5431;fillColor=#6d8764;entryX=0.025;entryY=0.5;entryDx=0;entryDy=0;entryPerimeter=0;strokeWidth=2;" parent="KNp7AIw2lC0-q2BaCLb4-1" source="KNp7AIw2lC0-q2BaCLb4-93" target="KNp7AIw2lC0-q2BaCLb4-101" edge="1">
          <mxGeometry relative="1" as="geometry">
            <mxPoint x="726.5" y="960" as="targetPoint" />
          </mxGeometry>
        </mxCell>
        <mxCell id="KNp7AIw2lC0-q2BaCLb4-101" value="&lt;b&gt;Thread-A&lt;/b&gt;" style="rounded=1;whiteSpace=wrap;html=1;shadow=1;fontFamily=Comic Sans MS;fontSize=18;fillColor=#f5f5f5;fontColor=#333333;strokeColor=#666666;" parent="KNp7AIw2lC0-q2BaCLb4-1" vertex="1">
          <mxGeometry x="733.5" y="930" width="120" height="60" as="geometry" />
        </mxCell>
        <mxCell id="KNp7AIw2lC0-q2BaCLb4-102" value="" style="endArrow=classic;html=1;rounded=0;labelBackgroundColor=#F4F1DE;strokeColor=#314354;fontColor=#393C56;exitX=0.013;exitY=0.671;exitDx=0;exitDy=0;exitPerimeter=0;fillColor=#647687;strokeWidth=2;" parent="KNp7AIw2lC0-q2BaCLb4-1" source="KNp7AIw2lC0-q2BaCLb4-101" edge="1">
          <mxGeometry width="50" height="50" relative="1" as="geometry">
            <mxPoint x="716.5" y="970" as="sourcePoint" />
            <mxPoint x="666.5" y="970" as="targetPoint" />
          </mxGeometry>
        </mxCell>
        <mxCell id="KNp7AIw2lC0-q2BaCLb4-103" value="" style="shape=flexArrow;endArrow=classic;html=1;rounded=0;fontFamily=Comic Sans MS;fontSize=18;curved=1;labelBackgroundColor=#F4F1DE;strokeColor=#3A5431;fontColor=#393C56;fillColor=#6d8764;shadow=1;" parent="KNp7AIw2lC0-q2BaCLb4-1" edge="1">
          <mxGeometry width="50" height="50" relative="1" as="geometry">
            <mxPoint x="390" y="330" as="sourcePoint" />
            <mxPoint x="390" y="560" as="targetPoint" />
          </mxGeometry>
        </mxCell>
        <mxCell id="KNp7AIw2lC0-q2BaCLb4-104" value="&lt;b&gt;旧tail的next指向新节点&lt;/b&gt;" style="rounded=1;whiteSpace=wrap;html=1;shadow=0;sketch=1;fontFamily=Comic Sans MS;fontSize=17;fontColor=#333333;strokeColor=#666666;fillColor=#f5f5f5;" parent="KNp7AIw2lC0-q2BaCLb4-1" vertex="1">
          <mxGeometry x="437" y="750" width="193" height="60" as="geometry" />
        </mxCell>
        <mxCell id="KNp7AIw2lC0-q2BaCLb4-105" value="&lt;b&gt;prev&lt;/b&gt;" style="text;html=1;strokeColor=none;fillColor=none;align=center;verticalAlign=middle;whiteSpace=wrap;rounded=0;shadow=0;sketch=1;fontFamily=Comic Sans MS;fontSize=17;fontColor=#393C56;" parent="KNp7AIw2lC0-q2BaCLb4-1" vertex="1">
          <mxGeometry x="710" y="200" width="60" height="30" as="geometry" />
        </mxCell>
        <mxCell id="KNp7AIw2lC0-q2BaCLb4-106" value="&lt;b&gt;prev&lt;/b&gt;" style="text;html=1;strokeColor=none;fillColor=none;align=center;verticalAlign=middle;whiteSpace=wrap;rounded=0;shadow=0;sketch=1;fontFamily=Comic Sans MS;fontSize=17;fontColor=#393C56;" parent="KNp7AIw2lC0-q2BaCLb4-1" vertex="1">
          <mxGeometry x="710" y="270" width="60" height="30" as="geometry" />
        </mxCell>
        <mxCell id="KNp7AIw2lC0-q2BaCLb4-107" value="&lt;b&gt;A线程竞争成功，tail指向A线程所在节点&lt;/b&gt;" style="rounded=1;whiteSpace=wrap;html=1;shadow=0;sketch=1;fontFamily=Comic Sans MS;fontSize=17;fontColor=#333333;strokeColor=#666666;fillColor=#f5f5f5;" parent="KNp7AIw2lC0-q2BaCLb4-1" vertex="1">
          <mxGeometry x="404" y="420" width="336" height="60" as="geometry" />
        </mxCell>
      </root>
    </mxGraphModel>
  </diagram>
  <diagram name="addNode-update" id="uFBF5Ak7VVGC2q9RLlek">
    <mxGraphModel dx="979" dy="1719" grid="1" gridSize="10" guides="1" tooltips="1" connect="0" arrows="1" fold="1" page="1" pageScale="1" pageWidth="827" pageHeight="1169" background="#F4F1DE" math="0" shadow="0">
      <root>
        <mxCell id="fmlfFhLAwLrGfDVLeJNm-0" />
        <mxCell id="fmlfFhLAwLrGfDVLeJNm-1" parent="fmlfFhLAwLrGfDVLeJNm-0" />
        <mxCell id="fmlfFhLAwLrGfDVLeJNm-2" style="edgeStyle=orthogonalEdgeStyle;rounded=0;orthogonalLoop=1;jettySize=auto;html=1;labelBackgroundColor=#F4F1DE;strokeColor=#E07A5F;fontColor=#393C56;" parent="fmlfFhLAwLrGfDVLeJNm-1" source="fmlfFhLAwLrGfDVLeJNm-3" edge="1">
          <mxGeometry relative="1" as="geometry">
            <mxPoint x="250" y="250" as="targetPoint" />
          </mxGeometry>
        </mxCell>
        <mxCell id="fmlfFhLAwLrGfDVLeJNm-3" value="" style="shape=table;startSize=0;container=1;collapsible=0;childLayout=tableLayout;fillColor=#F2CC8F;strokeColor=#E07A5F;rounded=0;shadow=1;fontColor=#393C56;" parent="fmlfFhLAwLrGfDVLeJNm-1" vertex="1">
          <mxGeometry x="140" y="230" width="60" height="40" as="geometry" />
        </mxCell>
        <mxCell id="fmlfFhLAwLrGfDVLeJNm-4" value="" style="shape=tableRow;horizontal=0;startSize=0;swimlaneHead=0;swimlaneBody=0;top=0;left=0;bottom=0;right=0;collapsible=0;dropTarget=0;fillColor=none;points=[[0,0.5],[1,0.5]];portConstraint=eastwest;strokeColor=#E07A5F;fontColor=#393C56;" parent="fmlfFhLAwLrGfDVLeJNm-3" vertex="1">
          <mxGeometry width="60" height="40" as="geometry" />
        </mxCell>
        <mxCell id="fmlfFhLAwLrGfDVLeJNm-5" value="" style="shape=partialRectangle;html=1;whiteSpace=wrap;connectable=0;overflow=hidden;fillColor=none;top=0;left=0;bottom=0;right=0;pointerEvents=1;strokeColor=#E07A5F;fontColor=#393C56;" parent="fmlfFhLAwLrGfDVLeJNm-4" vertex="1">
          <mxGeometry width="60" height="40" as="geometry">
            <mxRectangle width="60" height="40" as="alternateBounds" />
          </mxGeometry>
        </mxCell>
        <mxCell id="fmlfFhLAwLrGfDVLeJNm-6" value="" style="shape=table;startSize=0;container=1;collapsible=0;childLayout=tableLayout;fillColor=#F2CC8F;strokeColor=#E07A5F;rounded=0;shadow=1;fontColor=#393C56;" parent="fmlfFhLAwLrGfDVLeJNm-1" vertex="1">
          <mxGeometry x="250" y="230" width="60" height="40" as="geometry" />
        </mxCell>
        <mxCell id="fmlfFhLAwLrGfDVLeJNm-7" value="" style="shape=tableRow;horizontal=0;startSize=0;swimlaneHead=0;swimlaneBody=0;top=0;left=0;bottom=0;right=0;collapsible=0;dropTarget=0;fillColor=none;points=[[0,0.5],[1,0.5]];portConstraint=eastwest;strokeColor=#E07A5F;fontColor=#393C56;" parent="fmlfFhLAwLrGfDVLeJNm-6" vertex="1">
          <mxGeometry width="60" height="40" as="geometry" />
        </mxCell>
        <mxCell id="fmlfFhLAwLrGfDVLeJNm-8" value="" style="shape=partialRectangle;html=1;whiteSpace=wrap;connectable=0;overflow=hidden;fillColor=none;top=0;left=0;bottom=0;right=0;pointerEvents=1;strokeColor=#E07A5F;fontColor=#393C56;" parent="fmlfFhLAwLrGfDVLeJNm-7" vertex="1">
          <mxGeometry width="60" height="40" as="geometry">
            <mxRectangle width="60" height="40" as="alternateBounds" />
          </mxGeometry>
        </mxCell>
        <mxCell id="fmlfFhLAwLrGfDVLeJNm-9" style="edgeStyle=orthogonalEdgeStyle;rounded=0;orthogonalLoop=1;jettySize=auto;html=1;labelBackgroundColor=#F4F1DE;strokeColor=#E07A5F;fontColor=#393C56;" parent="fmlfFhLAwLrGfDVLeJNm-1" source="fmlfFhLAwLrGfDVLeJNm-7" edge="1">
          <mxGeometry relative="1" as="geometry">
            <mxPoint x="370" y="250" as="targetPoint" />
          </mxGeometry>
        </mxCell>
        <mxCell id="fmlfFhLAwLrGfDVLeJNm-10" value="" style="endArrow=classic;html=1;rounded=0;labelBackgroundColor=#F4F1DE;strokeColor=#E07A5F;fontColor=#393C56;" parent="fmlfFhLAwLrGfDVLeJNm-1" edge="1">
          <mxGeometry width="50" height="50" relative="1" as="geometry">
            <mxPoint x="250" y="260" as="sourcePoint" />
            <mxPoint x="200" y="260" as="targetPoint" />
          </mxGeometry>
        </mxCell>
        <mxCell id="fmlfFhLAwLrGfDVLeJNm-11" style="edgeStyle=orthogonalEdgeStyle;rounded=0;orthogonalLoop=1;jettySize=auto;html=1;labelBackgroundColor=#F4F1DE;strokeColor=#E07A5F;fontColor=#393C56;" parent="fmlfFhLAwLrGfDVLeJNm-1" edge="1">
          <mxGeometry relative="1" as="geometry">
            <mxPoint x="360" y="250" as="targetPoint" />
            <mxPoint x="310" y="250" as="sourcePoint" />
          </mxGeometry>
        </mxCell>
        <mxCell id="fmlfFhLAwLrGfDVLeJNm-12" value="" style="shape=table;startSize=0;container=1;collapsible=0;childLayout=tableLayout;fillColor=#F2CC8F;strokeColor=#E07A5F;rounded=0;shadow=1;fontColor=#393C56;" parent="fmlfFhLAwLrGfDVLeJNm-1" vertex="1">
          <mxGeometry x="360" y="230" width="60" height="40" as="geometry" />
        </mxCell>
        <mxCell id="fmlfFhLAwLrGfDVLeJNm-13" value="" style="shape=tableRow;horizontal=0;startSize=0;swimlaneHead=0;swimlaneBody=0;top=0;left=0;bottom=0;right=0;collapsible=0;dropTarget=0;fillColor=none;points=[[0,0.5],[1,0.5]];portConstraint=eastwest;strokeColor=#E07A5F;fontColor=#393C56;" parent="fmlfFhLAwLrGfDVLeJNm-12" vertex="1">
          <mxGeometry width="60" height="40" as="geometry" />
        </mxCell>
        <mxCell id="fmlfFhLAwLrGfDVLeJNm-14" value="" style="shape=partialRectangle;html=1;whiteSpace=wrap;connectable=0;overflow=hidden;fillColor=none;top=0;left=0;bottom=0;right=0;pointerEvents=1;strokeColor=#E07A5F;fontColor=#393C56;" parent="fmlfFhLAwLrGfDVLeJNm-13" vertex="1">
          <mxGeometry width="60" height="40" as="geometry">
            <mxRectangle width="60" height="40" as="alternateBounds" />
          </mxGeometry>
        </mxCell>
        <mxCell id="fmlfFhLAwLrGfDVLeJNm-15" value="" style="endArrow=classic;html=1;rounded=0;labelBackgroundColor=#F4F1DE;strokeColor=#E07A5F;fontColor=#393C56;" parent="fmlfFhLAwLrGfDVLeJNm-1" edge="1">
          <mxGeometry width="50" height="50" relative="1" as="geometry">
            <mxPoint x="360" y="260" as="sourcePoint" />
            <mxPoint x="310" y="260" as="targetPoint" />
          </mxGeometry>
        </mxCell>
        <mxCell id="fmlfFhLAwLrGfDVLeJNm-16" style="edgeStyle=orthogonalEdgeStyle;rounded=0;orthogonalLoop=1;jettySize=auto;html=1;labelBackgroundColor=#F4F1DE;strokeColor=#E07A5F;fontColor=#393C56;" parent="fmlfFhLAwLrGfDVLeJNm-1" edge="1">
          <mxGeometry relative="1" as="geometry">
            <mxPoint x="480" y="250" as="targetPoint" />
            <mxPoint x="420" y="250" as="sourcePoint" />
          </mxGeometry>
        </mxCell>
        <mxCell id="fmlfFhLAwLrGfDVLeJNm-17" style="edgeStyle=orthogonalEdgeStyle;rounded=0;orthogonalLoop=1;jettySize=auto;html=1;labelBackgroundColor=#F4F1DE;strokeColor=#E07A5F;fontColor=#393C56;" parent="fmlfFhLAwLrGfDVLeJNm-1" edge="1">
          <mxGeometry relative="1" as="geometry">
            <mxPoint x="470" y="250" as="targetPoint" />
            <mxPoint x="420" y="250" as="sourcePoint" />
          </mxGeometry>
        </mxCell>
        <mxCell id="fmlfFhLAwLrGfDVLeJNm-18" value="" style="shape=table;startSize=0;container=1;collapsible=0;childLayout=tableLayout;fillColor=#F2CC8F;strokeColor=#E07A5F;rounded=0;shadow=1;fontColor=#393C56;" parent="fmlfFhLAwLrGfDVLeJNm-1" vertex="1">
          <mxGeometry x="470" y="230" width="60" height="40" as="geometry" />
        </mxCell>
        <mxCell id="fmlfFhLAwLrGfDVLeJNm-19" value="" style="shape=tableRow;horizontal=0;startSize=0;swimlaneHead=0;swimlaneBody=0;top=0;left=0;bottom=0;right=0;collapsible=0;dropTarget=0;fillColor=none;points=[[0,0.5],[1,0.5]];portConstraint=eastwest;strokeColor=#E07A5F;fontColor=#393C56;" parent="fmlfFhLAwLrGfDVLeJNm-18" vertex="1">
          <mxGeometry width="60" height="40" as="geometry" />
        </mxCell>
        <mxCell id="fmlfFhLAwLrGfDVLeJNm-20" value="" style="shape=partialRectangle;html=1;whiteSpace=wrap;connectable=0;overflow=hidden;fillColor=none;top=0;left=0;bottom=0;right=0;pointerEvents=1;strokeColor=#E07A5F;fontColor=#393C56;" parent="fmlfFhLAwLrGfDVLeJNm-19" vertex="1">
          <mxGeometry width="60" height="40" as="geometry">
            <mxRectangle width="60" height="40" as="alternateBounds" />
          </mxGeometry>
        </mxCell>
        <mxCell id="fmlfFhLAwLrGfDVLeJNm-21" value="" style="endArrow=classic;html=1;rounded=0;labelBackgroundColor=#F4F1DE;strokeColor=#E07A5F;fontColor=#393C56;" parent="fmlfFhLAwLrGfDVLeJNm-1" edge="1">
          <mxGeometry width="50" height="50" relative="1" as="geometry">
            <mxPoint x="470" y="260" as="sourcePoint" />
            <mxPoint x="420" y="260" as="targetPoint" />
          </mxGeometry>
        </mxCell>
        <mxCell id="fmlfFhLAwLrGfDVLeJNm-22" style="edgeStyle=orthogonalEdgeStyle;rounded=0;orthogonalLoop=1;jettySize=auto;html=1;labelBackgroundColor=#F4F1DE;strokeColor=#E07A5F;fontColor=#393C56;" parent="fmlfFhLAwLrGfDVLeJNm-1" edge="1">
          <mxGeometry relative="1" as="geometry">
            <mxPoint x="590" y="250" as="targetPoint" />
            <mxPoint x="530" y="250" as="sourcePoint" />
          </mxGeometry>
        </mxCell>
        <mxCell id="fmlfFhLAwLrGfDVLeJNm-23" style="edgeStyle=orthogonalEdgeStyle;rounded=0;orthogonalLoop=1;jettySize=auto;html=1;labelBackgroundColor=#F4F1DE;strokeColor=#E07A5F;fontColor=#393C56;" parent="fmlfFhLAwLrGfDVLeJNm-1" edge="1">
          <mxGeometry relative="1" as="geometry">
            <mxPoint x="580" y="250" as="targetPoint" />
            <mxPoint x="530" y="250" as="sourcePoint" />
          </mxGeometry>
        </mxCell>
        <mxCell id="fmlfFhLAwLrGfDVLeJNm-24" value="" style="shape=table;startSize=0;container=1;collapsible=0;childLayout=tableLayout;fillColor=#F2CC8F;strokeColor=#E07A5F;rounded=0;shadow=1;fontColor=#393C56;" parent="fmlfFhLAwLrGfDVLeJNm-1" vertex="1">
          <mxGeometry x="580" y="230" width="60" height="40" as="geometry" />
        </mxCell>
        <mxCell id="fmlfFhLAwLrGfDVLeJNm-25" value="" style="shape=tableRow;horizontal=0;startSize=0;swimlaneHead=0;swimlaneBody=0;top=0;left=0;bottom=0;right=0;collapsible=0;dropTarget=0;fillColor=none;points=[[0,0.5],[1,0.5]];portConstraint=eastwest;strokeColor=#E07A5F;fontColor=#393C56;" parent="fmlfFhLAwLrGfDVLeJNm-24" vertex="1">
          <mxGeometry width="60" height="40" as="geometry" />
        </mxCell>
        <mxCell id="fmlfFhLAwLrGfDVLeJNm-26" value="" style="shape=partialRectangle;html=1;whiteSpace=wrap;connectable=0;overflow=hidden;fillColor=none;top=0;left=0;bottom=0;right=0;pointerEvents=1;strokeColor=#E07A5F;fontColor=#393C56;" parent="fmlfFhLAwLrGfDVLeJNm-25" vertex="1">
          <mxGeometry width="60" height="40" as="geometry">
            <mxRectangle width="60" height="40" as="alternateBounds" />
          </mxGeometry>
        </mxCell>
        <mxCell id="fmlfFhLAwLrGfDVLeJNm-27" value="" style="endArrow=classic;html=1;rounded=0;labelBackgroundColor=#F4F1DE;strokeColor=#E07A5F;fontColor=#393C56;" parent="fmlfFhLAwLrGfDVLeJNm-1" edge="1">
          <mxGeometry width="50" height="50" relative="1" as="geometry">
            <mxPoint x="580" y="260" as="sourcePoint" />
            <mxPoint x="530" y="260" as="targetPoint" />
          </mxGeometry>
        </mxCell>
        <mxCell id="fmlfFhLAwLrGfDVLeJNm-28" style="edgeStyle=orthogonalEdgeStyle;curved=1;rounded=0;orthogonalLoop=1;jettySize=auto;html=1;entryX=0.527;entryY=0.026;entryDx=0;entryDy=0;entryPerimeter=0;fontFamily=Comic Sans MS;fontSize=18;labelBackgroundColor=#F4F1DE;strokeColor=#3A5431;fontColor=#393C56;fillColor=#6d8764;" parent="fmlfFhLAwLrGfDVLeJNm-1" source="fmlfFhLAwLrGfDVLeJNm-29" target="fmlfFhLAwLrGfDVLeJNm-4" edge="1">
          <mxGeometry relative="1" as="geometry" />
        </mxCell>
        <mxCell id="fmlfFhLAwLrGfDVLeJNm-29" value="&lt;font style=&quot;font-size: 18px;&quot; face=&quot;Comic Sans MS&quot;&gt;&lt;b&gt;head&lt;/b&gt;&lt;/font&gt;" style="text;html=1;strokeColor=#CCCCCC;fillColor=#6d8764;align=center;verticalAlign=middle;whiteSpace=wrap;rounded=1;shadow=1;fontColor=#ffffff;sketch=0;" parent="fmlfFhLAwLrGfDVLeJNm-1" vertex="1">
          <mxGeometry x="140" y="120" width="60" height="30" as="geometry" />
        </mxCell>
        <mxCell id="fmlfFhLAwLrGfDVLeJNm-30" style="edgeStyle=orthogonalEdgeStyle;curved=1;rounded=0;orthogonalLoop=1;jettySize=auto;html=1;entryX=0.5;entryY=0;entryDx=0;entryDy=0;entryPerimeter=0;fontFamily=Comic Sans MS;fontSize=18;labelBackgroundColor=#F4F1DE;strokeColor=#3A5431;fontColor=#393C56;fillColor=#6d8764;" parent="fmlfFhLAwLrGfDVLeJNm-1" source="fmlfFhLAwLrGfDVLeJNm-31" target="fmlfFhLAwLrGfDVLeJNm-25" edge="1">
          <mxGeometry relative="1" as="geometry" />
        </mxCell>
        <mxCell id="CH-LIcoEfqdNGTqHbl1Q-2" style="edgeStyle=orthogonalEdgeStyle;curved=1;rounded=1;sketch=0;orthogonalLoop=1;jettySize=auto;html=1;shadow=1;fontFamily=Comic Sans MS;fontSize=17;fontColor=#393C56;strokeColor=#E07A5F;strokeWidth=2;fillColor=#F2CC8F;dashed=1;" parent="fmlfFhLAwLrGfDVLeJNm-1" source="fmlfFhLAwLrGfDVLeJNm-31" target="fmlfFhLAwLrGfDVLeJNm-33" edge="1">
          <mxGeometry relative="1" as="geometry" />
        </mxCell>
        <mxCell id="CH-LIcoEfqdNGTqHbl1Q-3" style="edgeStyle=orthogonalEdgeStyle;curved=1;rounded=1;sketch=0;orthogonalLoop=1;jettySize=auto;html=1;entryX=0.575;entryY=-0.004;entryDx=0;entryDy=0;entryPerimeter=0;shadow=1;fontFamily=Comic Sans MS;fontSize=17;fontColor=#393C56;strokeColor=#E07A5F;strokeWidth=2;fillColor=#F2CC8F;dashed=1;" parent="fmlfFhLAwLrGfDVLeJNm-1" source="fmlfFhLAwLrGfDVLeJNm-31" target="fmlfFhLAwLrGfDVLeJNm-35" edge="1">
          <mxGeometry relative="1" as="geometry" />
        </mxCell>
        <mxCell id="fmlfFhLAwLrGfDVLeJNm-31" value="&lt;font style=&quot;font-size: 18px;&quot; face=&quot;Comic Sans MS&quot;&gt;&lt;b&gt;tail&lt;/b&gt;&lt;/font&gt;" style="text;html=1;strokeColor=#CCCCCC;fillColor=#6d8764;align=center;verticalAlign=middle;whiteSpace=wrap;rounded=1;shadow=1;fontColor=#ffffff;" parent="fmlfFhLAwLrGfDVLeJNm-1" vertex="1">
          <mxGeometry x="580" y="130" width="60" height="30" as="geometry" />
        </mxCell>
        <mxCell id="fmlfFhLAwLrGfDVLeJNm-33" value="&lt;b&gt;Thread-A&lt;/b&gt;" style="rounded=1;whiteSpace=wrap;html=1;shadow=1;fontFamily=Comic Sans MS;fontSize=18;fillColor=#f5f5f5;fontColor=#333333;strokeColor=#666666;" parent="fmlfFhLAwLrGfDVLeJNm-1" vertex="1">
          <mxGeometry x="766.5" y="30" width="120" height="60" as="geometry" />
        </mxCell>
        <mxCell id="fmlfFhLAwLrGfDVLeJNm-35" value="&lt;b&gt;Thread-B&lt;/b&gt;" style="rounded=1;whiteSpace=wrap;html=1;shadow=1;fontFamily=Comic Sans MS;fontSize=18;fillColor=#f5f5f5;fontColor=#333333;strokeColor=#666666;" parent="fmlfFhLAwLrGfDVLeJNm-1" vertex="1">
          <mxGeometry x="766.5" y="200" width="120" height="60" as="geometry" />
        </mxCell>
        <mxCell id="fmlfFhLAwLrGfDVLeJNm-36" value="" style="shape=flexArrow;endArrow=classic;html=1;rounded=0;fontFamily=Comic Sans MS;fontSize=18;curved=1;labelBackgroundColor=#F4F1DE;strokeColor=#3A5431;fontColor=#393C56;fillColor=#6d8764;shadow=1;" parent="fmlfFhLAwLrGfDVLeJNm-1" edge="1">
          <mxGeometry width="50" height="50" relative="1" as="geometry">
            <mxPoint x="400" y="710" as="sourcePoint" />
            <mxPoint x="400" y="860" as="targetPoint" />
          </mxGeometry>
        </mxCell>
        <mxCell id="fmlfFhLAwLrGfDVLeJNm-37" value="&lt;b style=&quot;font-family: &amp;quot;Comic Sans MS&amp;quot;; font-size: 17px;&quot;&gt;A,B线程CAS竞争让自己所在的节点成为tail节点&lt;/b&gt;" style="rounded=1;whiteSpace=wrap;html=1;sketch=1;fontColor=#333333;strokeColor=#666666;fillColor=#f5f5f5;shadow=0;align=center;" parent="fmlfFhLAwLrGfDVLeJNm-1" vertex="1">
          <mxGeometry x="606.5" y="-50" width="410" height="60" as="geometry" />
        </mxCell>
        <mxCell id="fmlfFhLAwLrGfDVLeJNm-38" style="edgeStyle=orthogonalEdgeStyle;rounded=0;orthogonalLoop=1;jettySize=auto;html=1;labelBackgroundColor=#F4F1DE;strokeColor=#E07A5F;fontColor=#393C56;" parent="fmlfFhLAwLrGfDVLeJNm-1" source="fmlfFhLAwLrGfDVLeJNm-39" edge="1">
          <mxGeometry relative="1" as="geometry">
            <mxPoint x="250" y="660" as="targetPoint" />
          </mxGeometry>
        </mxCell>
        <mxCell id="fmlfFhLAwLrGfDVLeJNm-39" value="" style="shape=table;startSize=0;container=1;collapsible=0;childLayout=tableLayout;fillColor=#F2CC8F;strokeColor=#E07A5F;rounded=0;shadow=1;fontColor=#393C56;" parent="fmlfFhLAwLrGfDVLeJNm-1" vertex="1">
          <mxGeometry x="140" y="640" width="60" height="40" as="geometry" />
        </mxCell>
        <mxCell id="fmlfFhLAwLrGfDVLeJNm-40" value="" style="shape=tableRow;horizontal=0;startSize=0;swimlaneHead=0;swimlaneBody=0;top=0;left=0;bottom=0;right=0;collapsible=0;dropTarget=0;fillColor=none;points=[[0,0.5],[1,0.5]];portConstraint=eastwest;strokeColor=#E07A5F;fontColor=#393C56;" parent="fmlfFhLAwLrGfDVLeJNm-39" vertex="1">
          <mxGeometry width="60" height="40" as="geometry" />
        </mxCell>
        <mxCell id="fmlfFhLAwLrGfDVLeJNm-41" value="" style="shape=partialRectangle;html=1;whiteSpace=wrap;connectable=0;overflow=hidden;fillColor=none;top=0;left=0;bottom=0;right=0;pointerEvents=1;strokeColor=#E07A5F;fontColor=#393C56;" parent="fmlfFhLAwLrGfDVLeJNm-40" vertex="1">
          <mxGeometry width="60" height="40" as="geometry">
            <mxRectangle width="60" height="40" as="alternateBounds" />
          </mxGeometry>
        </mxCell>
        <mxCell id="fmlfFhLAwLrGfDVLeJNm-42" value="" style="shape=table;startSize=0;container=1;collapsible=0;childLayout=tableLayout;fillColor=#F2CC8F;strokeColor=#E07A5F;rounded=0;shadow=1;fontColor=#393C56;" parent="fmlfFhLAwLrGfDVLeJNm-1" vertex="1">
          <mxGeometry x="250" y="640" width="60" height="40" as="geometry" />
        </mxCell>
        <mxCell id="fmlfFhLAwLrGfDVLeJNm-43" value="" style="shape=tableRow;horizontal=0;startSize=0;swimlaneHead=0;swimlaneBody=0;top=0;left=0;bottom=0;right=0;collapsible=0;dropTarget=0;fillColor=none;points=[[0,0.5],[1,0.5]];portConstraint=eastwest;strokeColor=#E07A5F;fontColor=#393C56;" parent="fmlfFhLAwLrGfDVLeJNm-42" vertex="1">
          <mxGeometry width="60" height="40" as="geometry" />
        </mxCell>
        <mxCell id="fmlfFhLAwLrGfDVLeJNm-44" value="" style="shape=partialRectangle;html=1;whiteSpace=wrap;connectable=0;overflow=hidden;fillColor=none;top=0;left=0;bottom=0;right=0;pointerEvents=1;strokeColor=#E07A5F;fontColor=#393C56;" parent="fmlfFhLAwLrGfDVLeJNm-43" vertex="1">
          <mxGeometry width="60" height="40" as="geometry">
            <mxRectangle width="60" height="40" as="alternateBounds" />
          </mxGeometry>
        </mxCell>
        <mxCell id="fmlfFhLAwLrGfDVLeJNm-45" style="edgeStyle=orthogonalEdgeStyle;rounded=0;orthogonalLoop=1;jettySize=auto;html=1;labelBackgroundColor=#F4F1DE;strokeColor=#E07A5F;fontColor=#393C56;" parent="fmlfFhLAwLrGfDVLeJNm-1" source="fmlfFhLAwLrGfDVLeJNm-43" edge="1">
          <mxGeometry relative="1" as="geometry">
            <mxPoint x="370" y="660" as="targetPoint" />
          </mxGeometry>
        </mxCell>
        <mxCell id="fmlfFhLAwLrGfDVLeJNm-46" value="" style="endArrow=classic;html=1;rounded=0;labelBackgroundColor=#F4F1DE;strokeColor=#E07A5F;fontColor=#393C56;" parent="fmlfFhLAwLrGfDVLeJNm-1" edge="1">
          <mxGeometry width="50" height="50" relative="1" as="geometry">
            <mxPoint x="250" y="670" as="sourcePoint" />
            <mxPoint x="200" y="670" as="targetPoint" />
          </mxGeometry>
        </mxCell>
        <mxCell id="fmlfFhLAwLrGfDVLeJNm-47" style="edgeStyle=orthogonalEdgeStyle;rounded=0;orthogonalLoop=1;jettySize=auto;html=1;labelBackgroundColor=#F4F1DE;strokeColor=#E07A5F;fontColor=#393C56;" parent="fmlfFhLAwLrGfDVLeJNm-1" edge="1">
          <mxGeometry relative="1" as="geometry">
            <mxPoint x="360" y="660" as="targetPoint" />
            <mxPoint x="310" y="660" as="sourcePoint" />
          </mxGeometry>
        </mxCell>
        <mxCell id="fmlfFhLAwLrGfDVLeJNm-48" value="" style="shape=table;startSize=0;container=1;collapsible=0;childLayout=tableLayout;fillColor=#F2CC8F;strokeColor=#E07A5F;rounded=0;shadow=1;fontColor=#393C56;" parent="fmlfFhLAwLrGfDVLeJNm-1" vertex="1">
          <mxGeometry x="360" y="640" width="60" height="40" as="geometry" />
        </mxCell>
        <mxCell id="fmlfFhLAwLrGfDVLeJNm-49" value="" style="shape=tableRow;horizontal=0;startSize=0;swimlaneHead=0;swimlaneBody=0;top=0;left=0;bottom=0;right=0;collapsible=0;dropTarget=0;fillColor=none;points=[[0,0.5],[1,0.5]];portConstraint=eastwest;strokeColor=#E07A5F;fontColor=#393C56;" parent="fmlfFhLAwLrGfDVLeJNm-48" vertex="1">
          <mxGeometry width="60" height="40" as="geometry" />
        </mxCell>
        <mxCell id="fmlfFhLAwLrGfDVLeJNm-50" value="" style="shape=partialRectangle;html=1;whiteSpace=wrap;connectable=0;overflow=hidden;fillColor=none;top=0;left=0;bottom=0;right=0;pointerEvents=1;strokeColor=#E07A5F;fontColor=#393C56;" parent="fmlfFhLAwLrGfDVLeJNm-49" vertex="1">
          <mxGeometry width="60" height="40" as="geometry">
            <mxRectangle width="60" height="40" as="alternateBounds" />
          </mxGeometry>
        </mxCell>
        <mxCell id="fmlfFhLAwLrGfDVLeJNm-51" value="" style="endArrow=classic;html=1;rounded=0;labelBackgroundColor=#F4F1DE;strokeColor=#E07A5F;fontColor=#393C56;" parent="fmlfFhLAwLrGfDVLeJNm-1" edge="1">
          <mxGeometry width="50" height="50" relative="1" as="geometry">
            <mxPoint x="360" y="670" as="sourcePoint" />
            <mxPoint x="310" y="670" as="targetPoint" />
          </mxGeometry>
        </mxCell>
        <mxCell id="fmlfFhLAwLrGfDVLeJNm-52" style="edgeStyle=orthogonalEdgeStyle;rounded=0;orthogonalLoop=1;jettySize=auto;html=1;labelBackgroundColor=#F4F1DE;strokeColor=#E07A5F;fontColor=#393C56;" parent="fmlfFhLAwLrGfDVLeJNm-1" edge="1">
          <mxGeometry relative="1" as="geometry">
            <mxPoint x="480" y="660" as="targetPoint" />
            <mxPoint x="420" y="660" as="sourcePoint" />
          </mxGeometry>
        </mxCell>
        <mxCell id="fmlfFhLAwLrGfDVLeJNm-53" style="edgeStyle=orthogonalEdgeStyle;rounded=0;orthogonalLoop=1;jettySize=auto;html=1;labelBackgroundColor=#F4F1DE;strokeColor=#E07A5F;fontColor=#393C56;" parent="fmlfFhLAwLrGfDVLeJNm-1" edge="1">
          <mxGeometry relative="1" as="geometry">
            <mxPoint x="470" y="660" as="targetPoint" />
            <mxPoint x="420" y="660" as="sourcePoint" />
          </mxGeometry>
        </mxCell>
        <mxCell id="fmlfFhLAwLrGfDVLeJNm-54" value="" style="shape=table;startSize=0;container=1;collapsible=0;childLayout=tableLayout;fillColor=#F2CC8F;strokeColor=#E07A5F;rounded=0;shadow=1;fontColor=#393C56;" parent="fmlfFhLAwLrGfDVLeJNm-1" vertex="1">
          <mxGeometry x="470" y="640" width="60" height="40" as="geometry" />
        </mxCell>
        <mxCell id="fmlfFhLAwLrGfDVLeJNm-55" value="" style="shape=tableRow;horizontal=0;startSize=0;swimlaneHead=0;swimlaneBody=0;top=0;left=0;bottom=0;right=0;collapsible=0;dropTarget=0;fillColor=none;points=[[0,0.5],[1,0.5]];portConstraint=eastwest;strokeColor=#E07A5F;fontColor=#393C56;" parent="fmlfFhLAwLrGfDVLeJNm-54" vertex="1">
          <mxGeometry width="60" height="40" as="geometry" />
        </mxCell>
        <mxCell id="fmlfFhLAwLrGfDVLeJNm-56" value="" style="shape=partialRectangle;html=1;whiteSpace=wrap;connectable=0;overflow=hidden;fillColor=none;top=0;left=0;bottom=0;right=0;pointerEvents=1;strokeColor=#E07A5F;fontColor=#393C56;" parent="fmlfFhLAwLrGfDVLeJNm-55" vertex="1">
          <mxGeometry width="60" height="40" as="geometry">
            <mxRectangle width="60" height="40" as="alternateBounds" />
          </mxGeometry>
        </mxCell>
        <mxCell id="fmlfFhLAwLrGfDVLeJNm-57" value="" style="endArrow=classic;html=1;rounded=0;labelBackgroundColor=#F4F1DE;strokeColor=#E07A5F;fontColor=#393C56;" parent="fmlfFhLAwLrGfDVLeJNm-1" edge="1">
          <mxGeometry width="50" height="50" relative="1" as="geometry">
            <mxPoint x="470" y="670" as="sourcePoint" />
            <mxPoint x="420" y="670" as="targetPoint" />
          </mxGeometry>
        </mxCell>
        <mxCell id="fmlfFhLAwLrGfDVLeJNm-58" style="edgeStyle=orthogonalEdgeStyle;rounded=0;orthogonalLoop=1;jettySize=auto;html=1;labelBackgroundColor=#F4F1DE;strokeColor=#E07A5F;fontColor=#393C56;" parent="fmlfFhLAwLrGfDVLeJNm-1" edge="1">
          <mxGeometry relative="1" as="geometry">
            <mxPoint x="590" y="660" as="targetPoint" />
            <mxPoint x="530" y="660" as="sourcePoint" />
          </mxGeometry>
        </mxCell>
        <mxCell id="fmlfFhLAwLrGfDVLeJNm-59" style="edgeStyle=orthogonalEdgeStyle;rounded=0;orthogonalLoop=1;jettySize=auto;html=1;labelBackgroundColor=#F4F1DE;strokeColor=#E07A5F;fontColor=#393C56;" parent="fmlfFhLAwLrGfDVLeJNm-1" edge="1">
          <mxGeometry relative="1" as="geometry">
            <mxPoint x="580" y="660" as="targetPoint" />
            <mxPoint x="530" y="660" as="sourcePoint" />
          </mxGeometry>
        </mxCell>
        <mxCell id="fmlfFhLAwLrGfDVLeJNm-60" value="" style="shape=table;startSize=0;container=1;collapsible=0;childLayout=tableLayout;fillColor=#F2CC8F;strokeColor=#E07A5F;rounded=0;shadow=1;fontColor=#393C56;" parent="fmlfFhLAwLrGfDVLeJNm-1" vertex="1">
          <mxGeometry x="580" y="640" width="60" height="40" as="geometry" />
        </mxCell>
        <mxCell id="fmlfFhLAwLrGfDVLeJNm-61" value="" style="shape=tableRow;horizontal=0;startSize=0;swimlaneHead=0;swimlaneBody=0;top=0;left=0;bottom=0;right=0;collapsible=0;dropTarget=0;fillColor=none;points=[[0,0.5],[1,0.5]];portConstraint=eastwest;strokeColor=#E07A5F;fontColor=#393C56;" parent="fmlfFhLAwLrGfDVLeJNm-60" vertex="1">
          <mxGeometry width="60" height="40" as="geometry" />
        </mxCell>
        <mxCell id="fmlfFhLAwLrGfDVLeJNm-62" value="" style="shape=partialRectangle;html=1;whiteSpace=wrap;connectable=0;overflow=hidden;fillColor=none;top=0;left=0;bottom=0;right=0;pointerEvents=1;strokeColor=#E07A5F;fontColor=#393C56;" parent="fmlfFhLAwLrGfDVLeJNm-61" vertex="1">
          <mxGeometry width="60" height="40" as="geometry">
            <mxRectangle width="60" height="40" as="alternateBounds" />
          </mxGeometry>
        </mxCell>
        <mxCell id="fmlfFhLAwLrGfDVLeJNm-63" value="" style="endArrow=classic;html=1;rounded=0;labelBackgroundColor=#F4F1DE;strokeColor=#E07A5F;fontColor=#393C56;" parent="fmlfFhLAwLrGfDVLeJNm-1" edge="1">
          <mxGeometry width="50" height="50" relative="1" as="geometry">
            <mxPoint x="580" y="670" as="sourcePoint" />
            <mxPoint x="530" y="670" as="targetPoint" />
          </mxGeometry>
        </mxCell>
        <mxCell id="fmlfFhLAwLrGfDVLeJNm-64" style="edgeStyle=orthogonalEdgeStyle;curved=1;rounded=0;orthogonalLoop=1;jettySize=auto;html=1;entryX=0.527;entryY=0.026;entryDx=0;entryDy=0;entryPerimeter=0;fontFamily=Comic Sans MS;fontSize=18;labelBackgroundColor=#F4F1DE;strokeColor=#3A5431;fontColor=#393C56;fillColor=#6d8764;" parent="fmlfFhLAwLrGfDVLeJNm-1" source="fmlfFhLAwLrGfDVLeJNm-65" target="fmlfFhLAwLrGfDVLeJNm-40" edge="1">
          <mxGeometry relative="1" as="geometry" />
        </mxCell>
        <mxCell id="fmlfFhLAwLrGfDVLeJNm-65" value="&lt;font style=&quot;font-size: 18px;&quot; face=&quot;Comic Sans MS&quot;&gt;&lt;b&gt;head&lt;/b&gt;&lt;/font&gt;" style="text;html=1;strokeColor=#CCCCCC;fillColor=#6d8764;align=center;verticalAlign=middle;whiteSpace=wrap;rounded=1;shadow=1;fontColor=#ffffff;" parent="fmlfFhLAwLrGfDVLeJNm-1" vertex="1">
          <mxGeometry x="140" y="530" width="60" height="30" as="geometry" />
        </mxCell>
        <mxCell id="fmlfFhLAwLrGfDVLeJNm-66" style="edgeStyle=orthogonalEdgeStyle;curved=0;rounded=1;sketch=0;orthogonalLoop=1;jettySize=auto;html=1;entryX=0.532;entryY=-0.059;entryDx=0;entryDy=0;entryPerimeter=0;shadow=1;fontFamily=Comic Sans MS;fontSize=17;fontColor=#393C56;strokeColor=#314354;fillColor=#647687;strokeWidth=4;" parent="fmlfFhLAwLrGfDVLeJNm-1" source="fmlfFhLAwLrGfDVLeJNm-67" target="fmlfFhLAwLrGfDVLeJNm-68" edge="1">
          <mxGeometry relative="1" as="geometry" />
        </mxCell>
        <mxCell id="fmlfFhLAwLrGfDVLeJNm-67" value="&lt;font style=&quot;font-size: 18px;&quot; face=&quot;Comic Sans MS&quot;&gt;&lt;b&gt;tail&lt;/b&gt;&lt;/font&gt;" style="text;html=1;strokeColor=#CCCCCC;fillColor=#6d8764;align=center;verticalAlign=middle;whiteSpace=wrap;rounded=1;shadow=1;fontColor=#ffffff;" parent="fmlfFhLAwLrGfDVLeJNm-1" vertex="1">
          <mxGeometry x="740" y="530" width="60" height="30" as="geometry" />
        </mxCell>
        <mxCell id="fmlfFhLAwLrGfDVLeJNm-68" value="&lt;b&gt;Thread-A&lt;/b&gt;" style="rounded=1;whiteSpace=wrap;html=1;shadow=1;fontFamily=Comic Sans MS;fontSize=18;fillColor=#f5f5f5;fontColor=#333333;strokeColor=#666666;" parent="fmlfFhLAwLrGfDVLeJNm-1" vertex="1">
          <mxGeometry x="707" y="630" width="120" height="60" as="geometry" />
        </mxCell>
        <mxCell id="fmlfFhLAwLrGfDVLeJNm-70" value="&lt;b&gt;A线程竞争成功，tail指向A线程所在节点&lt;/b&gt;" style="rounded=1;whiteSpace=wrap;html=1;shadow=0;sketch=1;fontFamily=Comic Sans MS;fontSize=17;fontColor=#333333;strokeColor=#666666;fillColor=#f5f5f5;" parent="fmlfFhLAwLrGfDVLeJNm-1" vertex="1">
          <mxGeometry x="414" y="360" width="336" height="60" as="geometry" />
        </mxCell>
        <mxCell id="fmlfFhLAwLrGfDVLeJNm-71" style="edgeStyle=orthogonalEdgeStyle;rounded=0;orthogonalLoop=1;jettySize=auto;html=1;labelBackgroundColor=#F4F1DE;strokeColor=#E07A5F;fontColor=#393C56;" parent="fmlfFhLAwLrGfDVLeJNm-1" source="fmlfFhLAwLrGfDVLeJNm-72" edge="1">
          <mxGeometry relative="1" as="geometry">
            <mxPoint x="276.5" y="960" as="targetPoint" />
          </mxGeometry>
        </mxCell>
        <mxCell id="fmlfFhLAwLrGfDVLeJNm-72" value="" style="shape=table;startSize=0;container=1;collapsible=0;childLayout=tableLayout;fillColor=#F2CC8F;strokeColor=#E07A5F;rounded=0;shadow=1;fontColor=#393C56;" parent="fmlfFhLAwLrGfDVLeJNm-1" vertex="1">
          <mxGeometry x="166.5" y="940" width="60" height="40" as="geometry" />
        </mxCell>
        <mxCell id="fmlfFhLAwLrGfDVLeJNm-73" value="" style="shape=tableRow;horizontal=0;startSize=0;swimlaneHead=0;swimlaneBody=0;top=0;left=0;bottom=0;right=0;collapsible=0;dropTarget=0;fillColor=none;points=[[0,0.5],[1,0.5]];portConstraint=eastwest;strokeColor=#E07A5F;fontColor=#393C56;" parent="fmlfFhLAwLrGfDVLeJNm-72" vertex="1">
          <mxGeometry width="60" height="40" as="geometry" />
        </mxCell>
        <mxCell id="fmlfFhLAwLrGfDVLeJNm-74" value="" style="shape=partialRectangle;html=1;whiteSpace=wrap;connectable=0;overflow=hidden;fillColor=none;top=0;left=0;bottom=0;right=0;pointerEvents=1;strokeColor=#E07A5F;fontColor=#393C56;" parent="fmlfFhLAwLrGfDVLeJNm-73" vertex="1">
          <mxGeometry width="60" height="40" as="geometry">
            <mxRectangle width="60" height="40" as="alternateBounds" />
          </mxGeometry>
        </mxCell>
        <mxCell id="fmlfFhLAwLrGfDVLeJNm-75" value="" style="shape=table;startSize=0;container=1;collapsible=0;childLayout=tableLayout;fillColor=#F2CC8F;strokeColor=#E07A5F;rounded=0;shadow=1;fontColor=#393C56;" parent="fmlfFhLAwLrGfDVLeJNm-1" vertex="1">
          <mxGeometry x="276.5" y="940" width="60" height="40" as="geometry" />
        </mxCell>
        <mxCell id="fmlfFhLAwLrGfDVLeJNm-76" value="" style="shape=tableRow;horizontal=0;startSize=0;swimlaneHead=0;swimlaneBody=0;top=0;left=0;bottom=0;right=0;collapsible=0;dropTarget=0;fillColor=none;points=[[0,0.5],[1,0.5]];portConstraint=eastwest;strokeColor=#E07A5F;fontColor=#393C56;" parent="fmlfFhLAwLrGfDVLeJNm-75" vertex="1">
          <mxGeometry width="60" height="40" as="geometry" />
        </mxCell>
        <mxCell id="fmlfFhLAwLrGfDVLeJNm-77" value="" style="shape=partialRectangle;html=1;whiteSpace=wrap;connectable=0;overflow=hidden;fillColor=none;top=0;left=0;bottom=0;right=0;pointerEvents=1;strokeColor=#E07A5F;fontColor=#393C56;" parent="fmlfFhLAwLrGfDVLeJNm-76" vertex="1">
          <mxGeometry width="60" height="40" as="geometry">
            <mxRectangle width="60" height="40" as="alternateBounds" />
          </mxGeometry>
        </mxCell>
        <mxCell id="fmlfFhLAwLrGfDVLeJNm-78" style="edgeStyle=orthogonalEdgeStyle;rounded=0;orthogonalLoop=1;jettySize=auto;html=1;labelBackgroundColor=#F4F1DE;strokeColor=#E07A5F;fontColor=#393C56;" parent="fmlfFhLAwLrGfDVLeJNm-1" source="fmlfFhLAwLrGfDVLeJNm-76" edge="1">
          <mxGeometry relative="1" as="geometry">
            <mxPoint x="396.5" y="960" as="targetPoint" />
          </mxGeometry>
        </mxCell>
        <mxCell id="fmlfFhLAwLrGfDVLeJNm-79" value="" style="endArrow=classic;html=1;rounded=0;labelBackgroundColor=#F4F1DE;strokeColor=#E07A5F;fontColor=#393C56;" parent="fmlfFhLAwLrGfDVLeJNm-1" edge="1">
          <mxGeometry width="50" height="50" relative="1" as="geometry">
            <mxPoint x="276.5" y="970" as="sourcePoint" />
            <mxPoint x="226.5" y="970" as="targetPoint" />
          </mxGeometry>
        </mxCell>
        <mxCell id="fmlfFhLAwLrGfDVLeJNm-80" style="edgeStyle=orthogonalEdgeStyle;rounded=0;orthogonalLoop=1;jettySize=auto;html=1;labelBackgroundColor=#F4F1DE;strokeColor=#E07A5F;fontColor=#393C56;" parent="fmlfFhLAwLrGfDVLeJNm-1" edge="1">
          <mxGeometry relative="1" as="geometry">
            <mxPoint x="386.5" y="960" as="targetPoint" />
            <mxPoint x="336.5" y="960" as="sourcePoint" />
          </mxGeometry>
        </mxCell>
        <mxCell id="fmlfFhLAwLrGfDVLeJNm-81" value="" style="shape=table;startSize=0;container=1;collapsible=0;childLayout=tableLayout;fillColor=#F2CC8F;strokeColor=#E07A5F;rounded=0;shadow=1;fontColor=#393C56;" parent="fmlfFhLAwLrGfDVLeJNm-1" vertex="1">
          <mxGeometry x="386.5" y="940" width="60" height="40" as="geometry" />
        </mxCell>
        <mxCell id="fmlfFhLAwLrGfDVLeJNm-82" value="" style="shape=tableRow;horizontal=0;startSize=0;swimlaneHead=0;swimlaneBody=0;top=0;left=0;bottom=0;right=0;collapsible=0;dropTarget=0;fillColor=none;points=[[0,0.5],[1,0.5]];portConstraint=eastwest;strokeColor=#E07A5F;fontColor=#393C56;" parent="fmlfFhLAwLrGfDVLeJNm-81" vertex="1">
          <mxGeometry width="60" height="40" as="geometry" />
        </mxCell>
        <mxCell id="fmlfFhLAwLrGfDVLeJNm-83" value="" style="shape=partialRectangle;html=1;whiteSpace=wrap;connectable=0;overflow=hidden;fillColor=none;top=0;left=0;bottom=0;right=0;pointerEvents=1;strokeColor=#E07A5F;fontColor=#393C56;" parent="fmlfFhLAwLrGfDVLeJNm-82" vertex="1">
          <mxGeometry width="60" height="40" as="geometry">
            <mxRectangle width="60" height="40" as="alternateBounds" />
          </mxGeometry>
        </mxCell>
        <mxCell id="fmlfFhLAwLrGfDVLeJNm-84" value="" style="endArrow=classic;html=1;rounded=0;labelBackgroundColor=#F4F1DE;strokeColor=#E07A5F;fontColor=#393C56;" parent="fmlfFhLAwLrGfDVLeJNm-1" edge="1">
          <mxGeometry width="50" height="50" relative="1" as="geometry">
            <mxPoint x="386.5" y="970" as="sourcePoint" />
            <mxPoint x="336.5" y="970" as="targetPoint" />
          </mxGeometry>
        </mxCell>
        <mxCell id="fmlfFhLAwLrGfDVLeJNm-85" style="edgeStyle=orthogonalEdgeStyle;rounded=0;orthogonalLoop=1;jettySize=auto;html=1;labelBackgroundColor=#F4F1DE;strokeColor=#E07A5F;fontColor=#393C56;" parent="fmlfFhLAwLrGfDVLeJNm-1" edge="1">
          <mxGeometry relative="1" as="geometry">
            <mxPoint x="506.5" y="960" as="targetPoint" />
            <mxPoint x="446.5" y="960" as="sourcePoint" />
          </mxGeometry>
        </mxCell>
        <mxCell id="fmlfFhLAwLrGfDVLeJNm-86" style="edgeStyle=orthogonalEdgeStyle;rounded=0;orthogonalLoop=1;jettySize=auto;html=1;labelBackgroundColor=#F4F1DE;strokeColor=#E07A5F;fontColor=#393C56;" parent="fmlfFhLAwLrGfDVLeJNm-1" edge="1">
          <mxGeometry relative="1" as="geometry">
            <mxPoint x="496.5" y="960" as="targetPoint" />
            <mxPoint x="446.5" y="960" as="sourcePoint" />
          </mxGeometry>
        </mxCell>
        <mxCell id="fmlfFhLAwLrGfDVLeJNm-87" value="" style="shape=table;startSize=0;container=1;collapsible=0;childLayout=tableLayout;fillColor=#F2CC8F;strokeColor=#E07A5F;rounded=0;shadow=1;fontColor=#393C56;" parent="fmlfFhLAwLrGfDVLeJNm-1" vertex="1">
          <mxGeometry x="496.5" y="940" width="60" height="40" as="geometry" />
        </mxCell>
        <mxCell id="fmlfFhLAwLrGfDVLeJNm-88" value="" style="shape=tableRow;horizontal=0;startSize=0;swimlaneHead=0;swimlaneBody=0;top=0;left=0;bottom=0;right=0;collapsible=0;dropTarget=0;fillColor=none;points=[[0,0.5],[1,0.5]];portConstraint=eastwest;strokeColor=#E07A5F;fontColor=#393C56;" parent="fmlfFhLAwLrGfDVLeJNm-87" vertex="1">
          <mxGeometry width="60" height="40" as="geometry" />
        </mxCell>
        <mxCell id="fmlfFhLAwLrGfDVLeJNm-89" value="" style="shape=partialRectangle;html=1;whiteSpace=wrap;connectable=0;overflow=hidden;fillColor=none;top=0;left=0;bottom=0;right=0;pointerEvents=1;strokeColor=#E07A5F;fontColor=#393C56;" parent="fmlfFhLAwLrGfDVLeJNm-88" vertex="1">
          <mxGeometry width="60" height="40" as="geometry">
            <mxRectangle width="60" height="40" as="alternateBounds" />
          </mxGeometry>
        </mxCell>
        <mxCell id="fmlfFhLAwLrGfDVLeJNm-90" value="" style="endArrow=classic;html=1;rounded=0;labelBackgroundColor=#F4F1DE;strokeColor=#E07A5F;fontColor=#393C56;" parent="fmlfFhLAwLrGfDVLeJNm-1" edge="1">
          <mxGeometry width="50" height="50" relative="1" as="geometry">
            <mxPoint x="496.5" y="970" as="sourcePoint" />
            <mxPoint x="446.5" y="970" as="targetPoint" />
          </mxGeometry>
        </mxCell>
        <mxCell id="fmlfFhLAwLrGfDVLeJNm-91" style="edgeStyle=orthogonalEdgeStyle;rounded=0;orthogonalLoop=1;jettySize=auto;html=1;labelBackgroundColor=#F4F1DE;strokeColor=#E07A5F;fontColor=#393C56;" parent="fmlfFhLAwLrGfDVLeJNm-1" edge="1">
          <mxGeometry relative="1" as="geometry">
            <mxPoint x="616.5" y="960" as="targetPoint" />
            <mxPoint x="556.5" y="960" as="sourcePoint" />
          </mxGeometry>
        </mxCell>
        <mxCell id="fmlfFhLAwLrGfDVLeJNm-92" style="edgeStyle=orthogonalEdgeStyle;rounded=0;orthogonalLoop=1;jettySize=auto;html=1;labelBackgroundColor=#F4F1DE;strokeColor=#E07A5F;fontColor=#393C56;" parent="fmlfFhLAwLrGfDVLeJNm-1" edge="1">
          <mxGeometry relative="1" as="geometry">
            <mxPoint x="606.5" y="960" as="targetPoint" />
            <mxPoint x="556.5" y="960" as="sourcePoint" />
          </mxGeometry>
        </mxCell>
        <mxCell id="fmlfFhLAwLrGfDVLeJNm-93" value="" style="shape=table;startSize=0;container=1;collapsible=0;childLayout=tableLayout;fillColor=#F2CC8F;strokeColor=#E07A5F;rounded=0;shadow=1;fontColor=#393C56;" parent="fmlfFhLAwLrGfDVLeJNm-1" vertex="1">
          <mxGeometry x="606.5" y="940" width="60" height="40" as="geometry" />
        </mxCell>
        <mxCell id="fmlfFhLAwLrGfDVLeJNm-94" value="" style="shape=tableRow;horizontal=0;startSize=0;swimlaneHead=0;swimlaneBody=0;top=0;left=0;bottom=0;right=0;collapsible=0;dropTarget=0;fillColor=none;points=[[0,0.5],[1,0.5]];portConstraint=eastwest;strokeColor=#E07A5F;fontColor=#393C56;" parent="fmlfFhLAwLrGfDVLeJNm-93" vertex="1">
          <mxGeometry width="60" height="40" as="geometry" />
        </mxCell>
        <mxCell id="fmlfFhLAwLrGfDVLeJNm-95" value="" style="shape=partialRectangle;html=1;whiteSpace=wrap;connectable=0;overflow=hidden;fillColor=none;top=0;left=0;bottom=0;right=0;pointerEvents=1;strokeColor=#E07A5F;fontColor=#393C56;" parent="fmlfFhLAwLrGfDVLeJNm-94" vertex="1">
          <mxGeometry width="60" height="40" as="geometry">
            <mxRectangle width="60" height="40" as="alternateBounds" />
          </mxGeometry>
        </mxCell>
        <mxCell id="fmlfFhLAwLrGfDVLeJNm-96" value="" style="endArrow=classic;html=1;rounded=0;labelBackgroundColor=#F4F1DE;strokeColor=#E07A5F;fontColor=#393C56;" parent="fmlfFhLAwLrGfDVLeJNm-1" edge="1">
          <mxGeometry width="50" height="50" relative="1" as="geometry">
            <mxPoint x="606.5" y="970" as="sourcePoint" />
            <mxPoint x="556.5" y="970" as="targetPoint" />
          </mxGeometry>
        </mxCell>
        <mxCell id="fmlfFhLAwLrGfDVLeJNm-97" style="edgeStyle=orthogonalEdgeStyle;curved=1;rounded=0;orthogonalLoop=1;jettySize=auto;html=1;entryX=0.527;entryY=0.026;entryDx=0;entryDy=0;entryPerimeter=0;fontFamily=Comic Sans MS;fontSize=18;labelBackgroundColor=#F4F1DE;strokeColor=#3A5431;fontColor=#393C56;fillColor=#6d8764;" parent="fmlfFhLAwLrGfDVLeJNm-1" source="fmlfFhLAwLrGfDVLeJNm-98" target="fmlfFhLAwLrGfDVLeJNm-73" edge="1">
          <mxGeometry relative="1" as="geometry" />
        </mxCell>
        <mxCell id="fmlfFhLAwLrGfDVLeJNm-98" value="&lt;font style=&quot;font-size: 18px;&quot; face=&quot;Comic Sans MS&quot;&gt;&lt;b&gt;head&lt;/b&gt;&lt;/font&gt;" style="text;html=1;strokeColor=#CCCCCC;fillColor=#6d8764;align=center;verticalAlign=middle;whiteSpace=wrap;rounded=1;shadow=1;fontColor=#ffffff;" parent="fmlfFhLAwLrGfDVLeJNm-1" vertex="1">
          <mxGeometry x="166.5" y="830" width="60" height="30" as="geometry" />
        </mxCell>
        <mxCell id="fmlfFhLAwLrGfDVLeJNm-99" style="edgeStyle=orthogonalEdgeStyle;curved=0;rounded=1;sketch=0;orthogonalLoop=1;jettySize=auto;html=1;entryX=0.532;entryY=-0.059;entryDx=0;entryDy=0;entryPerimeter=0;shadow=1;fontFamily=Comic Sans MS;fontSize=17;fontColor=#393C56;strokeColor=#314354;fillColor=#647687;strokeWidth=4;" parent="fmlfFhLAwLrGfDVLeJNm-1" source="fmlfFhLAwLrGfDVLeJNm-100" target="fmlfFhLAwLrGfDVLeJNm-102" edge="1">
          <mxGeometry relative="1" as="geometry" />
        </mxCell>
        <mxCell id="fmlfFhLAwLrGfDVLeJNm-100" value="&lt;font style=&quot;font-size: 18px;&quot; face=&quot;Comic Sans MS&quot;&gt;&lt;b&gt;tail&lt;/b&gt;&lt;/font&gt;" style="text;html=1;strokeColor=#CCCCCC;fillColor=#6d8764;align=center;verticalAlign=middle;whiteSpace=wrap;rounded=1;shadow=1;fontColor=#ffffff;" parent="fmlfFhLAwLrGfDVLeJNm-1" vertex="1">
          <mxGeometry x="766.5" y="830" width="60" height="30" as="geometry" />
        </mxCell>
        <mxCell id="fmlfFhLAwLrGfDVLeJNm-101" style="edgeStyle=orthogonalEdgeStyle;curved=0;rounded=1;sketch=0;orthogonalLoop=1;jettySize=auto;html=1;shadow=1;fontFamily=Comic Sans MS;fontSize=17;fontColor=#393C56;strokeColor=#3A5431;fillColor=#6d8764;entryX=0.025;entryY=0.5;entryDx=0;entryDy=0;entryPerimeter=0;strokeWidth=2;" parent="fmlfFhLAwLrGfDVLeJNm-1" source="fmlfFhLAwLrGfDVLeJNm-94" target="fmlfFhLAwLrGfDVLeJNm-102" edge="1">
          <mxGeometry relative="1" as="geometry">
            <mxPoint x="726.5" y="960" as="targetPoint" />
          </mxGeometry>
        </mxCell>
        <mxCell id="fmlfFhLAwLrGfDVLeJNm-102" value="&lt;b&gt;Thread-A&lt;/b&gt;" style="rounded=1;whiteSpace=wrap;html=1;shadow=1;fontFamily=Comic Sans MS;fontSize=18;fillColor=#f5f5f5;fontColor=#333333;strokeColor=#666666;" parent="fmlfFhLAwLrGfDVLeJNm-1" vertex="1">
          <mxGeometry x="733.5" y="930" width="120" height="60" as="geometry" />
        </mxCell>
        <mxCell id="fmlfFhLAwLrGfDVLeJNm-103" value="" style="endArrow=classic;html=1;rounded=0;labelBackgroundColor=#F4F1DE;strokeColor=#314354;fontColor=#393C56;exitX=0.013;exitY=0.671;exitDx=0;exitDy=0;exitPerimeter=0;fillColor=#647687;strokeWidth=2;" parent="fmlfFhLAwLrGfDVLeJNm-1" source="fmlfFhLAwLrGfDVLeJNm-102" edge="1">
          <mxGeometry width="50" height="50" relative="1" as="geometry">
            <mxPoint x="716.5" y="970" as="sourcePoint" />
            <mxPoint x="666.5" y="970" as="targetPoint" />
          </mxGeometry>
        </mxCell>
        <mxCell id="fmlfFhLAwLrGfDVLeJNm-104" value="" style="shape=flexArrow;endArrow=classic;html=1;rounded=0;fontFamily=Comic Sans MS;fontSize=18;curved=1;labelBackgroundColor=#F4F1DE;strokeColor=#3A5431;fontColor=#393C56;fillColor=#6d8764;shadow=1;" parent="fmlfFhLAwLrGfDVLeJNm-1" edge="1">
          <mxGeometry width="50" height="50" relative="1" as="geometry">
            <mxPoint x="390" y="330" as="sourcePoint" />
            <mxPoint x="390" y="480" as="targetPoint" />
          </mxGeometry>
        </mxCell>
        <mxCell id="fmlfFhLAwLrGfDVLeJNm-105" value="&lt;div style=&quot;text-align: left;&quot;&gt;&lt;b style=&quot;background-color: initial;&quot;&gt;旧tail的next指向新节点&lt;/b&gt;&lt;/div&gt;&lt;b&gt;&lt;div style=&quot;text-align: left;&quot;&gt;&lt;b style=&quot;background-color: initial;&quot;&gt;新node的prev指向旧tail&lt;/b&gt;&lt;/div&gt;&lt;/b&gt;" style="rounded=1;whiteSpace=wrap;html=1;shadow=0;sketch=1;fontFamily=Comic Sans MS;fontSize=17;fontColor=#333333;strokeColor=#666666;fillColor=#f5f5f5;" parent="fmlfFhLAwLrGfDVLeJNm-1" vertex="1">
          <mxGeometry x="437" y="750" width="213" height="70" as="geometry" />
        </mxCell>
        <mxCell id="CH-LIcoEfqdNGTqHbl1Q-4" value="&lt;b&gt;CAS&lt;/b&gt;" style="text;html=1;strokeColor=none;fillColor=none;align=center;verticalAlign=middle;whiteSpace=wrap;rounded=0;shadow=0;sketch=1;fontFamily=Comic Sans MS;fontSize=17;fontColor=#393C56;" parent="fmlfFhLAwLrGfDVLeJNm-1" vertex="1">
          <mxGeometry x="660" y="100" width="90" height="30" as="geometry" />
        </mxCell>
        <mxCell id="CH-LIcoEfqdNGTqHbl1Q-5" value="&lt;b&gt;CAS&lt;/b&gt;" style="text;html=1;strokeColor=none;fillColor=none;align=center;verticalAlign=middle;whiteSpace=wrap;rounded=0;shadow=0;sketch=1;fontFamily=Comic Sans MS;fontSize=17;fontColor=#393C56;" parent="fmlfFhLAwLrGfDVLeJNm-1" vertex="1">
          <mxGeometry x="666.5" y="160" width="90" height="30" as="geometry" />
        </mxCell>
      </root>
    </mxGraphModel>
  </diagram>
  <diagram id="2cgmqP3Hg3Cngzb-jMWq" name="AQS-acquireQueued">
    <mxGraphModel dx="1806" dy="1719" grid="1" gridSize="10" guides="1" tooltips="1" connect="1" arrows="1" fold="1" page="1" pageScale="1" pageWidth="827" pageHeight="1169" background="#F4F1DE" math="0" shadow="1">
      <root>
        <mxCell id="0" />
        <mxCell id="1" parent="0" />
        <mxCell id="TieYy4rrWv5eCBPfneEI-3" style="edgeStyle=orthogonalEdgeStyle;curved=0;rounded=1;sketch=0;orthogonalLoop=1;jettySize=auto;html=1;fontFamily=Comic Sans MS;fontSize=18;fontColor=#393C56;strokeColor=#E07A5F;fillColor=#F2CC8F;" parent="1" source="TieYy4rrWv5eCBPfneEI-2" edge="1">
          <mxGeometry relative="1" as="geometry">
            <mxPoint x="504.5" y="170" as="targetPoint" />
          </mxGeometry>
        </mxCell>
        <mxCell id="TieYy4rrWv5eCBPfneEI-2" value="&lt;font style=&quot;font-size: 18px;&quot; face=&quot;Comic Sans MS&quot;&gt;&lt;b&gt;start&lt;/b&gt;&lt;/font&gt;" style="ellipse;whiteSpace=wrap;html=1;rounded=0;sketch=0;fontColor=#333333;strokeColor=#999999;fillColor=#f5f5f5;shadow=1;" parent="1" vertex="1">
          <mxGeometry x="444.5" y="-20" width="120" height="80" as="geometry" />
        </mxCell>
        <mxCell id="TieYy4rrWv5eCBPfneEI-35" style="edgeStyle=orthogonalEdgeStyle;curved=1;rounded=1;sketch=0;orthogonalLoop=1;jettySize=auto;html=1;entryX=0.5;entryY=0;entryDx=0;entryDy=0;fontFamily=Comic Sans MS;fontSize=14;fontColor=#393C56;strokeColor=#E07A5F;strokeWidth=2;fillColor=#F2CC8F;" parent="1" source="TieYy4rrWv5eCBPfneEI-4" target="TieYy4rrWv5eCBPfneEI-16" edge="1">
          <mxGeometry relative="1" as="geometry" />
        </mxCell>
        <mxCell id="TieYy4rrWv5eCBPfneEI-36" style="edgeStyle=orthogonalEdgeStyle;curved=1;rounded=1;sketch=0;orthogonalLoop=1;jettySize=auto;html=1;entryX=0.5;entryY=0;entryDx=0;entryDy=0;fontFamily=Comic Sans MS;fontSize=14;fontColor=#393C56;strokeColor=#E07A5F;strokeWidth=2;fillColor=#F2CC8F;" parent="1" source="TieYy4rrWv5eCBPfneEI-4" target="TieYy4rrWv5eCBPfneEI-22" edge="1">
          <mxGeometry relative="1" as="geometry" />
        </mxCell>
        <mxCell id="TieYy4rrWv5eCBPfneEI-4" value="&lt;b&gt;前一个节点是否是head节点&lt;/b&gt;" style="rhombus;whiteSpace=wrap;html=1;rounded=0;shadow=1;sketch=0;fontFamily=Comic Sans MS;fontSize=18;fontColor=#333333;strokeColor=#999999;fillColor=#f5f5f5;" parent="1" vertex="1">
          <mxGeometry x="369" y="170" width="271" height="90" as="geometry" />
        </mxCell>
        <mxCell id="TieYy4rrWv5eCBPfneEI-7" value="&lt;b&gt;true&lt;/b&gt;" style="text;html=1;strokeColor=#999999;fillColor=#f5f5f5;align=center;verticalAlign=middle;whiteSpace=wrap;rounded=1;shadow=1;sketch=0;fontFamily=Comic Sans MS;fontSize=18;fontColor=#333333;" parent="1" vertex="1">
          <mxGeometry x="344" y="150" width="70" height="40" as="geometry" />
        </mxCell>
        <mxCell id="TieYy4rrWv5eCBPfneEI-33" style="edgeStyle=orthogonalEdgeStyle;curved=1;rounded=1;sketch=0;orthogonalLoop=1;jettySize=auto;html=1;entryX=0.5;entryY=0;entryDx=0;entryDy=0;fontFamily=Comic Sans MS;fontSize=14;fontColor=#393C56;strokeColor=#E07A5F;strokeWidth=2;fillColor=#F2CC8F;" parent="1" source="TieYy4rrWv5eCBPfneEI-16" target="TieYy4rrWv5eCBPfneEI-21" edge="1">
          <mxGeometry relative="1" as="geometry" />
        </mxCell>
        <mxCell id="TieYy4rrWv5eCBPfneEI-34" style="edgeStyle=orthogonalEdgeStyle;curved=1;rounded=1;sketch=0;orthogonalLoop=1;jettySize=auto;html=1;fontFamily=Comic Sans MS;fontSize=14;fontColor=#393C56;strokeColor=#E07A5F;strokeWidth=2;fillColor=#F2CC8F;entryX=0.5;entryY=0;entryDx=0;entryDy=0;" parent="1" source="TieYy4rrWv5eCBPfneEI-16" target="TieYy4rrWv5eCBPfneEI-22" edge="1">
          <mxGeometry relative="1" as="geometry">
            <mxPoint x="550" y="480" as="targetPoint" />
            <Array as="points">
              <mxPoint x="255" y="430" />
              <mxPoint x="510" y="430" />
            </Array>
          </mxGeometry>
        </mxCell>
        <mxCell id="TieYy4rrWv5eCBPfneEI-16" value="&lt;b&gt;CAS获取锁&lt;/b&gt;" style="rhombus;whiteSpace=wrap;html=1;rounded=0;shadow=1;sketch=0;fontFamily=Comic Sans MS;fontSize=18;fontColor=#333333;strokeColor=#999999;fillColor=#f5f5f5;" parent="1" vertex="1">
          <mxGeometry x="150" y="330" width="210" height="80" as="geometry" />
        </mxCell>
        <mxCell id="TieYy4rrWv5eCBPfneEI-18" value="&lt;b&gt;success&lt;/b&gt;" style="text;html=1;strokeColor=#999999;fillColor=#f5f5f5;align=center;verticalAlign=middle;whiteSpace=wrap;rounded=1;shadow=1;sketch=0;fontFamily=Comic Sans MS;fontSize=18;fontColor=#333333;" parent="1" vertex="1">
          <mxGeometry x="90" y="320" width="70" height="40" as="geometry" />
        </mxCell>
        <mxCell id="TieYy4rrWv5eCBPfneEI-19" value="&lt;b&gt;fail&lt;/b&gt;" style="text;html=1;strokeColor=#999999;fillColor=#f5f5f5;align=center;verticalAlign=middle;whiteSpace=wrap;rounded=1;shadow=1;sketch=0;fontFamily=Comic Sans MS;fontSize=18;fontColor=#333333;" parent="1" vertex="1">
          <mxGeometry x="260" y="430" width="70" height="40" as="geometry" />
        </mxCell>
        <mxCell id="TieYy4rrWv5eCBPfneEI-21" value="&lt;b&gt;end&lt;/b&gt;" style="ellipse;whiteSpace=wrap;html=1;aspect=fixed;rounded=1;shadow=1;sketch=0;fontFamily=Comic Sans MS;fontSize=18;fontColor=#ffffff;strokeColor=#3A5431;fillColor=#6d8764;" parent="1" vertex="1">
          <mxGeometry x="-20" y="480" width="80" height="80" as="geometry" />
        </mxCell>
        <mxCell id="TieYy4rrWv5eCBPfneEI-23" style="edgeStyle=orthogonalEdgeStyle;curved=1;rounded=1;sketch=0;orthogonalLoop=1;jettySize=auto;html=1;fontFamily=Comic Sans MS;fontSize=14;fontColor=#393C56;strokeColor=#E07A5F;fillColor=#F2CC8F;entryX=0.5;entryY=0;entryDx=0;entryDy=0;" parent="1" source="TieYy4rrWv5eCBPfneEI-22" target="TieYy4rrWv5eCBPfneEI-28" edge="1">
          <mxGeometry relative="1" as="geometry">
            <mxPoint x="690" y="890" as="targetPoint" />
          </mxGeometry>
        </mxCell>
        <mxCell id="TieYy4rrWv5eCBPfneEI-37" style="edgeStyle=orthogonalEdgeStyle;curved=1;rounded=1;sketch=0;orthogonalLoop=1;jettySize=auto;html=1;fontFamily=Comic Sans MS;fontSize=14;fontColor=#393C56;strokeColor=#FF0000;strokeWidth=2;fillColor=#e51400;" parent="1" source="TieYy4rrWv5eCBPfneEI-22" edge="1">
          <mxGeometry relative="1" as="geometry">
            <mxPoint x="510" y="110" as="targetPoint" />
            <Array as="points">
              <mxPoint x="790" y="550" />
              <mxPoint x="790" y="110" />
            </Array>
          </mxGeometry>
        </mxCell>
        <mxCell id="TieYy4rrWv5eCBPfneEI-22" value="&lt;font style=&quot;font-size: 14px;&quot;&gt;&lt;b&gt;根据waitState判断是否应该阻塞线程&lt;/b&gt;&lt;/font&gt;" style="rhombus;whiteSpace=wrap;html=1;rounded=0;shadow=1;sketch=0;fontFamily=Comic Sans MS;fontSize=18;fontColor=#333333;strokeColor=#999999;fillColor=#f5f5f5;" parent="1" vertex="1">
          <mxGeometry x="360" y="510" width="300" height="80" as="geometry" />
        </mxCell>
        <mxCell id="TieYy4rrWv5eCBPfneEI-25" value="&lt;b&gt;阻塞&lt;/b&gt;" style="text;html=1;strokeColor=#999999;fillColor=#f5f5f5;align=center;verticalAlign=middle;whiteSpace=wrap;rounded=1;shadow=1;sketch=0;fontFamily=Comic Sans MS;fontSize=18;fontColor=#333333;" parent="1" vertex="1">
          <mxGeometry x="430" y="610" width="70" height="40" as="geometry" />
        </mxCell>
        <mxCell id="TieYy4rrWv5eCBPfneEI-27" value="&lt;b&gt;不阻塞&lt;/b&gt;" style="text;html=1;strokeColor=#999999;fillColor=#f5f5f5;align=center;verticalAlign=middle;whiteSpace=wrap;rounded=1;shadow=1;sketch=0;fontFamily=Comic Sans MS;fontSize=18;fontColor=#333333;" parent="1" vertex="1">
          <mxGeometry x="620" y="480" width="90" height="40" as="geometry" />
        </mxCell>
        <mxCell id="TieYy4rrWv5eCBPfneEI-38" style="edgeStyle=orthogonalEdgeStyle;curved=1;rounded=1;sketch=0;orthogonalLoop=1;jettySize=auto;html=1;fontFamily=Comic Sans MS;fontSize=14;fontColor=#393C56;strokeColor=#FF0000;strokeWidth=2;fillColor=#F2CC8F;" parent="1" source="TieYy4rrWv5eCBPfneEI-28" edge="1">
          <mxGeometry relative="1" as="geometry">
            <mxPoint x="780" y="450" as="targetPoint" />
            <Array as="points">
              <mxPoint x="780" y="740" />
            </Array>
          </mxGeometry>
        </mxCell>
        <mxCell id="TieYy4rrWv5eCBPfneEI-28" value="&lt;b&gt;阻塞线程，等待唤醒&lt;/b&gt;" style="rounded=1;whiteSpace=wrap;html=1;shadow=1;sketch=0;fontFamily=Comic Sans MS;fontSize=14;fontColor=#333333;strokeColor=#666666;fillColor=#f5f5f5;" parent="1" vertex="1">
          <mxGeometry x="440" y="700" width="140" height="60" as="geometry" />
        </mxCell>
        <mxCell id="TieYy4rrWv5eCBPfneEI-30" value="&lt;b&gt;线程被唤醒&lt;/b&gt;" style="text;html=1;strokeColor=#999999;fillColor=#f5f5f5;align=center;verticalAlign=middle;whiteSpace=wrap;rounded=1;shadow=1;sketch=0;fontFamily=Comic Sans MS;fontSize=18;fontColor=#333333;" parent="1" vertex="1">
          <mxGeometry x="630" y="740" width="120" height="40" as="geometry" />
        </mxCell>
        <mxCell id="TieYy4rrWv5eCBPfneEI-32" value="&lt;b&gt;false&lt;/b&gt;" style="text;html=1;strokeColor=#999999;fillColor=#f5f5f5;align=center;verticalAlign=middle;whiteSpace=wrap;rounded=1;shadow=1;sketch=0;fontFamily=Comic Sans MS;fontSize=18;fontColor=#333333;" parent="1" vertex="1">
          <mxGeometry x="420" y="280" width="70" height="40" as="geometry" />
        </mxCell>
      </root>
    </mxGraphModel>
  </diagram>
  <diagram id="uBPPhLWs4z6t3kH4wN3b" name="LOST-CANCELLED">
    <mxGraphModel dx="979" dy="1719" grid="1" gridSize="10" guides="1" tooltips="1" connect="1" arrows="1" fold="1" page="1" pageScale="1" pageWidth="827" pageHeight="1169" background="#F4F1DE" math="0" shadow="0">
      <root>
        <mxCell id="0" />
        <mxCell id="1" parent="0" />
        <mxCell id="1R08T453jIi8maYhzn3B-1" value="" style="shape=table;startSize=0;container=1;collapsible=0;childLayout=tableLayout;shadow=1;" parent="1" vertex="1">
          <mxGeometry x="380" y="-410" width="60" height="40" as="geometry" />
        </mxCell>
        <mxCell id="1R08T453jIi8maYhzn3B-2" value="" style="shape=tableRow;horizontal=0;startSize=0;swimlaneHead=0;swimlaneBody=0;top=0;left=0;bottom=0;right=0;collapsible=0;dropTarget=0;fillColor=none;points=[[0,0.5],[1,0.5]];portConstraint=eastwest;shadow=1;" parent="1R08T453jIi8maYhzn3B-1" vertex="1">
          <mxGeometry width="60" height="40" as="geometry" />
        </mxCell>
        <mxCell id="1R08T453jIi8maYhzn3B-3" value="&lt;font face=&quot;Comic Sans MS&quot; style=&quot;font-size: 18px;&quot;&gt;&lt;b&gt;1&lt;/b&gt;&lt;/font&gt;" style="shape=partialRectangle;html=1;whiteSpace=wrap;connectable=0;overflow=hidden;fillColor=none;top=0;left=0;bottom=0;right=0;pointerEvents=1;shadow=1;" parent="1R08T453jIi8maYhzn3B-2" vertex="1">
          <mxGeometry width="60" height="40" as="geometry">
            <mxRectangle width="60" height="40" as="alternateBounds" />
          </mxGeometry>
        </mxCell>
        <mxCell id="1R08T453jIi8maYhzn3B-4" style="edgeStyle=orthogonalEdgeStyle;rounded=0;orthogonalLoop=1;jettySize=auto;html=1;" parent="1" source="1R08T453jIi8maYhzn3B-2" edge="1">
          <mxGeometry relative="1" as="geometry">
            <mxPoint x="490" y="-390" as="targetPoint" />
          </mxGeometry>
        </mxCell>
        <mxCell id="1R08T453jIi8maYhzn3B-5" value="" style="shape=table;startSize=0;container=1;collapsible=0;childLayout=tableLayout;shadow=1;fillColor=#60a917;fontColor=#ffffff;strokeColor=#2D7600;" parent="1" vertex="1">
          <mxGeometry x="490" y="-410" width="60" height="40" as="geometry" />
        </mxCell>
        <mxCell id="1R08T453jIi8maYhzn3B-6" value="" style="shape=tableRow;horizontal=0;startSize=0;swimlaneHead=0;swimlaneBody=0;top=0;left=0;bottom=0;right=0;collapsible=0;dropTarget=0;fillColor=none;points=[[0,0.5],[1,0.5]];portConstraint=eastwest;shadow=1;" parent="1R08T453jIi8maYhzn3B-5" vertex="1">
          <mxGeometry width="60" height="40" as="geometry" />
        </mxCell>
        <mxCell id="1R08T453jIi8maYhzn3B-7" value="&lt;font face=&quot;Comic Sans MS&quot; style=&quot;font-size: 18px;&quot;&gt;&lt;b&gt;2&lt;/b&gt;&lt;/font&gt;" style="shape=partialRectangle;html=1;whiteSpace=wrap;connectable=0;overflow=hidden;fillColor=none;top=0;left=0;bottom=0;right=0;pointerEvents=1;shadow=1;" parent="1R08T453jIi8maYhzn3B-6" vertex="1">
          <mxGeometry width="60" height="40" as="geometry">
            <mxRectangle width="60" height="40" as="alternateBounds" />
          </mxGeometry>
        </mxCell>
        <mxCell id="1R08T453jIi8maYhzn3B-8" style="edgeStyle=orthogonalEdgeStyle;rounded=0;orthogonalLoop=1;jettySize=auto;html=1;" parent="1" edge="1">
          <mxGeometry relative="1" as="geometry">
            <mxPoint x="440" y="-380" as="targetPoint" />
            <mxPoint x="490" y="-380" as="sourcePoint" />
          </mxGeometry>
        </mxCell>
        <mxCell id="1R08T453jIi8maYhzn3B-29" style="edgeStyle=orthogonalEdgeStyle;rounded=0;orthogonalLoop=1;jettySize=auto;html=1;entryX=0.487;entryY=-0.007;entryDx=0;entryDy=0;entryPerimeter=0;" parent="1" source="1R08T453jIi8maYhzn3B-30" target="1R08T453jIi8maYhzn3B-2" edge="1">
          <mxGeometry relative="1" as="geometry" />
        </mxCell>
        <mxCell id="1R08T453jIi8maYhzn3B-30" value="&lt;font style=&quot;font-size: 16px;&quot; face=&quot;Comic Sans MS&quot;&gt;&lt;b&gt;head&lt;/b&gt;&lt;/font&gt;" style="text;html=1;strokeColor=#999999;fillColor=#f5f5f5;align=center;verticalAlign=middle;whiteSpace=wrap;rounded=1;shadow=1;fontColor=#333333;" parent="1" vertex="1">
          <mxGeometry x="380" y="-510" width="60" height="30" as="geometry" />
        </mxCell>
        <mxCell id="1R08T453jIi8maYhzn3B-31" style="edgeStyle=orthogonalEdgeStyle;rounded=0;orthogonalLoop=1;jettySize=auto;html=1;entryX=0.487;entryY=-0.007;entryDx=0;entryDy=0;entryPerimeter=0;fontFamily=Comic Sans MS;fontSize=16;" parent="1" source="1R08T453jIi8maYhzn3B-32" edge="1">
          <mxGeometry relative="1" as="geometry">
            <mxPoint x="629.2199999999998" y="-410" as="targetPoint" />
          </mxGeometry>
        </mxCell>
        <mxCell id="1R08T453jIi8maYhzn3B-32" value="&lt;font style=&quot;font-size: 16px;&quot; face=&quot;Comic Sans MS&quot;&gt;&lt;b&gt;tail&lt;/b&gt;&lt;/font&gt;" style="text;html=1;strokeColor=#999999;fillColor=#f5f5f5;align=center;verticalAlign=middle;whiteSpace=wrap;rounded=1;shadow=1;fontColor=#333333;" parent="1" vertex="1">
          <mxGeometry x="600" y="-509.72" width="60" height="30" as="geometry" />
        </mxCell>
        <mxCell id="1R08T453jIi8maYhzn3B-38" style="edgeStyle=orthogonalEdgeStyle;rounded=0;orthogonalLoop=1;jettySize=auto;html=1;" parent="1" edge="1">
          <mxGeometry relative="1" as="geometry">
            <mxPoint x="600" y="-390" as="targetPoint" />
            <mxPoint x="550" y="-390" as="sourcePoint" />
          </mxGeometry>
        </mxCell>
        <mxCell id="1R08T453jIi8maYhzn3B-39" value="" style="shape=table;startSize=0;container=1;collapsible=0;childLayout=tableLayout;shadow=1;" parent="1" vertex="1">
          <mxGeometry x="600" y="-410" width="60" height="40" as="geometry" />
        </mxCell>
        <mxCell id="1R08T453jIi8maYhzn3B-40" value="" style="shape=tableRow;horizontal=0;startSize=0;swimlaneHead=0;swimlaneBody=0;top=0;left=0;bottom=0;right=0;collapsible=0;dropTarget=0;fillColor=none;points=[[0,0.5],[1,0.5]];portConstraint=eastwest;shadow=1;" parent="1R08T453jIi8maYhzn3B-39" vertex="1">
          <mxGeometry width="60" height="40" as="geometry" />
        </mxCell>
        <mxCell id="1R08T453jIi8maYhzn3B-41" value="&lt;font face=&quot;Comic Sans MS&quot;&gt;&lt;b&gt;node&lt;/b&gt;&lt;/font&gt;" style="shape=partialRectangle;html=1;whiteSpace=wrap;connectable=0;overflow=hidden;fillColor=none;top=0;left=0;bottom=0;right=0;pointerEvents=1;shadow=1;" parent="1R08T453jIi8maYhzn3B-40" vertex="1">
          <mxGeometry width="60" height="40" as="geometry">
            <mxRectangle width="60" height="40" as="alternateBounds" />
          </mxGeometry>
        </mxCell>
        <mxCell id="1R08T453jIi8maYhzn3B-42" style="edgeStyle=orthogonalEdgeStyle;rounded=0;orthogonalLoop=1;jettySize=auto;html=1;" parent="1" edge="1">
          <mxGeometry relative="1" as="geometry">
            <mxPoint x="550" y="-380" as="targetPoint" />
            <mxPoint x="600" y="-380" as="sourcePoint" />
          </mxGeometry>
        </mxCell>
        <mxCell id="1R08T453jIi8maYhzn3B-43" value="" style="shape=table;startSize=0;container=1;collapsible=0;childLayout=tableLayout;shadow=1;fillColor=#60a917;fontColor=#ffffff;strokeColor=#2D7600;" parent="1" vertex="1">
          <mxGeometry x="294" y="-690" width="60" height="40" as="geometry" />
        </mxCell>
        <mxCell id="1R08T453jIi8maYhzn3B-44" value="" style="shape=tableRow;horizontal=0;startSize=0;swimlaneHead=0;swimlaneBody=0;top=0;left=0;bottom=0;right=0;collapsible=0;dropTarget=0;fillColor=none;points=[[0,0.5],[1,0.5]];portConstraint=eastwest;shadow=1;" parent="1R08T453jIi8maYhzn3B-43" vertex="1">
          <mxGeometry width="60" height="40" as="geometry" />
        </mxCell>
        <mxCell id="1R08T453jIi8maYhzn3B-45" value="" style="shape=partialRectangle;html=1;whiteSpace=wrap;connectable=0;overflow=hidden;fillColor=none;top=0;left=0;bottom=0;right=0;pointerEvents=1;shadow=1;" parent="1R08T453jIi8maYhzn3B-44" vertex="1">
          <mxGeometry width="60" height="40" as="geometry">
            <mxRectangle width="60" height="40" as="alternateBounds" />
          </mxGeometry>
        </mxCell>
        <mxCell id="1R08T453jIi8maYhzn3B-46" value="&lt;b&gt;CANCELLED&lt;/b&gt;" style="text;html=1;strokeColor=none;fillColor=none;align=center;verticalAlign=middle;whiteSpace=wrap;rounded=0;shadow=1;fontFamily=Comic Sans MS;fontSize=16;" parent="1" vertex="1">
          <mxGeometry x="274" y="-630" width="100" height="40" as="geometry" />
        </mxCell>
        <mxCell id="1R08T453jIi8maYhzn3B-47" value="" style="shape=table;startSize=0;container=1;collapsible=0;childLayout=tableLayout;shadow=1;" parent="1" vertex="1">
          <mxGeometry x="474" y="-690" width="60" height="40" as="geometry" />
        </mxCell>
        <mxCell id="1R08T453jIi8maYhzn3B-48" value="" style="shape=tableRow;horizontal=0;startSize=0;swimlaneHead=0;swimlaneBody=0;top=0;left=0;bottom=0;right=0;collapsible=0;dropTarget=0;fillColor=none;points=[[0,0.5],[1,0.5]];portConstraint=eastwest;shadow=1;" parent="1R08T453jIi8maYhzn3B-47" vertex="1">
          <mxGeometry width="60" height="40" as="geometry" />
        </mxCell>
        <mxCell id="1R08T453jIi8maYhzn3B-49" value="" style="shape=partialRectangle;html=1;whiteSpace=wrap;connectable=0;overflow=hidden;fillColor=none;top=0;left=0;bottom=0;right=0;pointerEvents=1;shadow=1;" parent="1R08T453jIi8maYhzn3B-48" vertex="1">
          <mxGeometry width="60" height="40" as="geometry">
            <mxRectangle width="60" height="40" as="alternateBounds" />
          </mxGeometry>
        </mxCell>
        <mxCell id="1R08T453jIi8maYhzn3B-50" value="&lt;b&gt;0,SIGNAL&lt;/b&gt;" style="text;html=1;strokeColor=none;fillColor=none;align=center;verticalAlign=middle;whiteSpace=wrap;rounded=0;shadow=1;fontFamily=Comic Sans MS;fontSize=16;" parent="1" vertex="1">
          <mxGeometry x="454" y="-627.5" width="100" height="35" as="geometry" />
        </mxCell>
        <mxCell id="1R08T453jIi8maYhzn3B-51" value="" style="shape=flexArrow;endArrow=classic;html=1;rounded=0;fontFamily=Comic Sans MS;fontSize=16;fillColor=#1ba1e2;strokeColor=#006EAF;sketch=1;" parent="1" edge="1">
          <mxGeometry width="50" height="50" relative="1" as="geometry">
            <mxPoint x="540" y="-320" as="sourcePoint" />
            <mxPoint x="540" y="-210" as="targetPoint" />
          </mxGeometry>
        </mxCell>
        <mxCell id="U2AwoeBKg12KYMyBMSXq-1" value="" style="shape=table;startSize=0;container=1;collapsible=0;childLayout=tableLayout;shadow=1;" parent="1" vertex="1">
          <mxGeometry x="450" y="-49.72" width="60" height="40" as="geometry" />
        </mxCell>
        <mxCell id="U2AwoeBKg12KYMyBMSXq-2" value="" style="shape=tableRow;horizontal=0;startSize=0;swimlaneHead=0;swimlaneBody=0;top=0;left=0;bottom=0;right=0;collapsible=0;dropTarget=0;fillColor=none;points=[[0,0.5],[1,0.5]];portConstraint=eastwest;shadow=1;" parent="U2AwoeBKg12KYMyBMSXq-1" vertex="1">
          <mxGeometry width="60" height="40" as="geometry" />
        </mxCell>
        <mxCell id="U2AwoeBKg12KYMyBMSXq-3" value="&lt;font style=&quot;font-size: 18px;&quot; face=&quot;Comic Sans MS&quot;&gt;&lt;b&gt;1&lt;/b&gt;&lt;/font&gt;" style="shape=partialRectangle;html=1;whiteSpace=wrap;connectable=0;overflow=hidden;fillColor=none;top=0;left=0;bottom=0;right=0;pointerEvents=1;shadow=1;" parent="U2AwoeBKg12KYMyBMSXq-2" vertex="1">
          <mxGeometry width="60" height="40" as="geometry">
            <mxRectangle width="60" height="40" as="alternateBounds" />
          </mxGeometry>
        </mxCell>
        <mxCell id="U2AwoeBKg12KYMyBMSXq-24" style="edgeStyle=orthogonalEdgeStyle;rounded=0;orthogonalLoop=1;jettySize=auto;html=1;" parent="1" edge="1">
          <mxGeometry relative="1" as="geometry">
            <mxPoint x="560" y="-30" as="targetPoint" />
            <mxPoint x="510" y="-30" as="sourcePoint" />
          </mxGeometry>
        </mxCell>
        <mxCell id="U2AwoeBKg12KYMyBMSXq-28" style="edgeStyle=orthogonalEdgeStyle;rounded=0;orthogonalLoop=1;jettySize=auto;html=1;" parent="1" edge="1">
          <mxGeometry relative="1" as="geometry">
            <mxPoint x="510" y="-20" as="targetPoint" />
            <mxPoint x="560" y="-20" as="sourcePoint" />
          </mxGeometry>
        </mxCell>
        <mxCell id="U2AwoeBKg12KYMyBMSXq-29" style="edgeStyle=orthogonalEdgeStyle;rounded=0;orthogonalLoop=1;jettySize=auto;html=1;entryX=0.487;entryY=-0.007;entryDx=0;entryDy=0;entryPerimeter=0;" parent="1" source="U2AwoeBKg12KYMyBMSXq-30" target="U2AwoeBKg12KYMyBMSXq-2" edge="1">
          <mxGeometry relative="1" as="geometry" />
        </mxCell>
        <mxCell id="U2AwoeBKg12KYMyBMSXq-30" value="&lt;font style=&quot;font-size: 16px;&quot; face=&quot;Comic Sans MS&quot;&gt;&lt;b&gt;head&lt;/b&gt;&lt;/font&gt;" style="text;html=1;strokeColor=#999999;fillColor=#f5f5f5;align=center;verticalAlign=middle;whiteSpace=wrap;rounded=1;shadow=1;fontColor=#333333;" parent="1" vertex="1">
          <mxGeometry x="450" y="-149.72" width="60" height="30" as="geometry" />
        </mxCell>
        <mxCell id="U2AwoeBKg12KYMyBMSXq-31" style="edgeStyle=orthogonalEdgeStyle;rounded=0;orthogonalLoop=1;jettySize=auto;html=1;entryX=0.487;entryY=-0.007;entryDx=0;entryDy=0;entryPerimeter=0;fontFamily=Comic Sans MS;fontSize=16;" parent="1" source="U2AwoeBKg12KYMyBMSXq-32" edge="1">
          <mxGeometry relative="1" as="geometry">
            <mxPoint x="589.2199999999998" y="-50" as="targetPoint" />
          </mxGeometry>
        </mxCell>
        <mxCell id="U2AwoeBKg12KYMyBMSXq-32" value="&lt;font style=&quot;font-size: 16px;&quot; face=&quot;Comic Sans MS&quot;&gt;&lt;b&gt;tail&lt;/b&gt;&lt;/font&gt;" style="text;html=1;strokeColor=#999999;fillColor=#f5f5f5;align=center;verticalAlign=middle;whiteSpace=wrap;rounded=1;shadow=1;fontColor=#333333;" parent="1" vertex="1">
          <mxGeometry x="560" y="-149.72000000000003" width="60" height="30" as="geometry" />
        </mxCell>
        <mxCell id="U2AwoeBKg12KYMyBMSXq-39" value="" style="shape=table;startSize=0;container=1;collapsible=0;childLayout=tableLayout;shadow=1;" parent="1" vertex="1">
          <mxGeometry x="560" y="-50" width="60" height="40" as="geometry" />
        </mxCell>
        <mxCell id="U2AwoeBKg12KYMyBMSXq-40" value="" style="shape=tableRow;horizontal=0;startSize=0;swimlaneHead=0;swimlaneBody=0;top=0;left=0;bottom=0;right=0;collapsible=0;dropTarget=0;fillColor=none;points=[[0,0.5],[1,0.5]];portConstraint=eastwest;shadow=1;" parent="U2AwoeBKg12KYMyBMSXq-39" vertex="1">
          <mxGeometry width="60" height="40" as="geometry" />
        </mxCell>
        <mxCell id="U2AwoeBKg12KYMyBMSXq-41" value="&lt;font face=&quot;Comic Sans MS&quot;&gt;&lt;b&gt;node&lt;/b&gt;&lt;/font&gt;" style="shape=partialRectangle;html=1;whiteSpace=wrap;connectable=0;overflow=hidden;fillColor=none;top=0;left=0;bottom=0;right=0;pointerEvents=1;shadow=1;" parent="U2AwoeBKg12KYMyBMSXq-40" vertex="1">
          <mxGeometry width="60" height="40" as="geometry">
            <mxRectangle width="60" height="40" as="alternateBounds" />
          </mxGeometry>
        </mxCell>
      </root>
    </mxGraphModel>
  </diagram>
  <diagram name="LOST-CANCELLED 的副本" id="1_nsFk018QgpVjchVjpS">
    <mxGraphModel dx="979" dy="1719" grid="1" gridSize="10" guides="1" tooltips="1" connect="1" arrows="1" fold="1" page="1" pageScale="1" pageWidth="827" pageHeight="1169" background="#F4F1DE" math="0" shadow="0">
      <root>
        <mxCell id="F0niB3dLpaSPnQFFP66Y-0" />
        <mxCell id="F0niB3dLpaSPnQFFP66Y-1" parent="F0niB3dLpaSPnQFFP66Y-0" />
        <mxCell id="F0niB3dLpaSPnQFFP66Y-2" value="" style="shape=table;startSize=0;container=1;collapsible=0;childLayout=tableLayout;shadow=1;" vertex="1" parent="F0niB3dLpaSPnQFFP66Y-1">
          <mxGeometry x="380" y="-410" width="60" height="40" as="geometry" />
        </mxCell>
        <mxCell id="F0niB3dLpaSPnQFFP66Y-3" value="" style="shape=tableRow;horizontal=0;startSize=0;swimlaneHead=0;swimlaneBody=0;top=0;left=0;bottom=0;right=0;collapsible=0;dropTarget=0;fillColor=none;points=[[0,0.5],[1,0.5]];portConstraint=eastwest;shadow=1;" vertex="1" parent="F0niB3dLpaSPnQFFP66Y-2">
          <mxGeometry width="60" height="40" as="geometry" />
        </mxCell>
        <mxCell id="F0niB3dLpaSPnQFFP66Y-4" value="&lt;font face=&quot;Comic Sans MS&quot; style=&quot;font-size: 18px;&quot;&gt;&lt;b&gt;1&lt;/b&gt;&lt;/font&gt;" style="shape=partialRectangle;html=1;whiteSpace=wrap;connectable=0;overflow=hidden;fillColor=none;top=0;left=0;bottom=0;right=0;pointerEvents=1;shadow=1;" vertex="1" parent="F0niB3dLpaSPnQFFP66Y-3">
          <mxGeometry width="60" height="40" as="geometry">
            <mxRectangle width="60" height="40" as="alternateBounds" />
          </mxGeometry>
        </mxCell>
        <mxCell id="F0niB3dLpaSPnQFFP66Y-5" style="edgeStyle=orthogonalEdgeStyle;rounded=0;orthogonalLoop=1;jettySize=auto;html=1;" edge="1" parent="F0niB3dLpaSPnQFFP66Y-1" source="F0niB3dLpaSPnQFFP66Y-3">
          <mxGeometry relative="1" as="geometry">
            <mxPoint x="490" y="-390" as="targetPoint" />
          </mxGeometry>
        </mxCell>
        <mxCell id="F0niB3dLpaSPnQFFP66Y-6" value="" style="shape=table;startSize=0;container=1;collapsible=0;childLayout=tableLayout;shadow=1;fillColor=#60a917;fontColor=#ffffff;strokeColor=#2D7600;" vertex="1" parent="F0niB3dLpaSPnQFFP66Y-1">
          <mxGeometry x="490" y="-410" width="60" height="40" as="geometry" />
        </mxCell>
        <mxCell id="F0niB3dLpaSPnQFFP66Y-7" value="" style="shape=tableRow;horizontal=0;startSize=0;swimlaneHead=0;swimlaneBody=0;top=0;left=0;bottom=0;right=0;collapsible=0;dropTarget=0;fillColor=none;points=[[0,0.5],[1,0.5]];portConstraint=eastwest;shadow=1;" vertex="1" parent="F0niB3dLpaSPnQFFP66Y-6">
          <mxGeometry width="60" height="40" as="geometry" />
        </mxCell>
        <mxCell id="F0niB3dLpaSPnQFFP66Y-8" value="&lt;font face=&quot;Comic Sans MS&quot; style=&quot;font-size: 18px;&quot;&gt;&lt;b&gt;2&lt;/b&gt;&lt;/font&gt;" style="shape=partialRectangle;html=1;whiteSpace=wrap;connectable=0;overflow=hidden;fillColor=none;top=0;left=0;bottom=0;right=0;pointerEvents=1;shadow=1;" vertex="1" parent="F0niB3dLpaSPnQFFP66Y-7">
          <mxGeometry width="60" height="40" as="geometry">
            <mxRectangle width="60" height="40" as="alternateBounds" />
          </mxGeometry>
        </mxCell>
        <mxCell id="F0niB3dLpaSPnQFFP66Y-9" style="edgeStyle=orthogonalEdgeStyle;rounded=0;orthogonalLoop=1;jettySize=auto;html=1;" edge="1" parent="F0niB3dLpaSPnQFFP66Y-1">
          <mxGeometry relative="1" as="geometry">
            <mxPoint x="440" y="-380" as="targetPoint" />
            <mxPoint x="490" y="-380" as="sourcePoint" />
          </mxGeometry>
        </mxCell>
        <mxCell id="F0niB3dLpaSPnQFFP66Y-10" style="edgeStyle=orthogonalEdgeStyle;rounded=0;orthogonalLoop=1;jettySize=auto;html=1;entryX=0.487;entryY=-0.007;entryDx=0;entryDy=0;entryPerimeter=0;" edge="1" parent="F0niB3dLpaSPnQFFP66Y-1" source="F0niB3dLpaSPnQFFP66Y-11" target="F0niB3dLpaSPnQFFP66Y-3">
          <mxGeometry relative="1" as="geometry" />
        </mxCell>
        <mxCell id="F0niB3dLpaSPnQFFP66Y-11" value="&lt;font style=&quot;font-size: 16px;&quot; face=&quot;Comic Sans MS&quot;&gt;&lt;b&gt;head&lt;/b&gt;&lt;/font&gt;" style="text;html=1;strokeColor=#999999;fillColor=#f5f5f5;align=center;verticalAlign=middle;whiteSpace=wrap;rounded=1;shadow=1;fontColor=#333333;" vertex="1" parent="F0niB3dLpaSPnQFFP66Y-1">
          <mxGeometry x="380" y="-510" width="60" height="30" as="geometry" />
        </mxCell>
        <mxCell id="F0niB3dLpaSPnQFFP66Y-12" style="edgeStyle=orthogonalEdgeStyle;rounded=0;orthogonalLoop=1;jettySize=auto;html=1;entryX=0.487;entryY=-0.007;entryDx=0;entryDy=0;entryPerimeter=0;fontFamily=Comic Sans MS;fontSize=16;" edge="1" parent="F0niB3dLpaSPnQFFP66Y-1" source="F0niB3dLpaSPnQFFP66Y-13">
          <mxGeometry relative="1" as="geometry">
            <mxPoint x="689.2199999999998" y="-410" as="targetPoint" />
          </mxGeometry>
        </mxCell>
        <mxCell id="F0niB3dLpaSPnQFFP66Y-13" value="&lt;font style=&quot;font-size: 16px;&quot; face=&quot;Comic Sans MS&quot;&gt;&lt;b&gt;tail&lt;/b&gt;&lt;/font&gt;" style="text;html=1;strokeColor=#999999;fillColor=#f5f5f5;align=center;verticalAlign=middle;whiteSpace=wrap;rounded=1;shadow=1;fontColor=#333333;" vertex="1" parent="F0niB3dLpaSPnQFFP66Y-1">
          <mxGeometry x="660" y="-509.72" width="60" height="30" as="geometry" />
        </mxCell>
        <mxCell id="F0niB3dLpaSPnQFFP66Y-15" value="" style="shape=table;startSize=0;container=1;collapsible=0;childLayout=tableLayout;shadow=1;" vertex="1" parent="F0niB3dLpaSPnQFFP66Y-1">
          <mxGeometry x="660" y="-410" width="60" height="40" as="geometry" />
        </mxCell>
        <mxCell id="F0niB3dLpaSPnQFFP66Y-16" value="" style="shape=tableRow;horizontal=0;startSize=0;swimlaneHead=0;swimlaneBody=0;top=0;left=0;bottom=0;right=0;collapsible=0;dropTarget=0;fillColor=none;points=[[0,0.5],[1,0.5]];portConstraint=eastwest;shadow=1;" vertex="1" parent="F0niB3dLpaSPnQFFP66Y-15">
          <mxGeometry width="60" height="40" as="geometry" />
        </mxCell>
        <mxCell id="F0niB3dLpaSPnQFFP66Y-17" value="&lt;font face=&quot;Comic Sans MS&quot;&gt;&lt;b&gt;node&lt;/b&gt;&lt;/font&gt;" style="shape=partialRectangle;html=1;whiteSpace=wrap;connectable=0;overflow=hidden;fillColor=none;top=0;left=0;bottom=0;right=0;pointerEvents=1;shadow=1;" vertex="1" parent="F0niB3dLpaSPnQFFP66Y-16">
          <mxGeometry width="60" height="40" as="geometry">
            <mxRectangle width="60" height="40" as="alternateBounds" />
          </mxGeometry>
        </mxCell>
        <mxCell id="F0niB3dLpaSPnQFFP66Y-19" value="" style="shape=table;startSize=0;container=1;collapsible=0;childLayout=tableLayout;shadow=1;fillColor=#60a917;fontColor=#ffffff;strokeColor=#2D7600;" vertex="1" parent="F0niB3dLpaSPnQFFP66Y-1">
          <mxGeometry x="294" y="-690" width="60" height="40" as="geometry" />
        </mxCell>
        <mxCell id="F0niB3dLpaSPnQFFP66Y-20" value="" style="shape=tableRow;horizontal=0;startSize=0;swimlaneHead=0;swimlaneBody=0;top=0;left=0;bottom=0;right=0;collapsible=0;dropTarget=0;fillColor=none;points=[[0,0.5],[1,0.5]];portConstraint=eastwest;shadow=1;" vertex="1" parent="F0niB3dLpaSPnQFFP66Y-19">
          <mxGeometry width="60" height="40" as="geometry" />
        </mxCell>
        <mxCell id="F0niB3dLpaSPnQFFP66Y-21" value="" style="shape=partialRectangle;html=1;whiteSpace=wrap;connectable=0;overflow=hidden;fillColor=none;top=0;left=0;bottom=0;right=0;pointerEvents=1;shadow=1;" vertex="1" parent="F0niB3dLpaSPnQFFP66Y-20">
          <mxGeometry width="60" height="40" as="geometry">
            <mxRectangle width="60" height="40" as="alternateBounds" />
          </mxGeometry>
        </mxCell>
        <mxCell id="F0niB3dLpaSPnQFFP66Y-22" value="&lt;b&gt;CANCELLED&lt;/b&gt;" style="text;html=1;strokeColor=none;fillColor=none;align=center;verticalAlign=middle;whiteSpace=wrap;rounded=0;shadow=1;fontFamily=Comic Sans MS;fontSize=16;" vertex="1" parent="F0niB3dLpaSPnQFFP66Y-1">
          <mxGeometry x="274" y="-630" width="100" height="40" as="geometry" />
        </mxCell>
        <mxCell id="F0niB3dLpaSPnQFFP66Y-23" value="" style="shape=table;startSize=0;container=1;collapsible=0;childLayout=tableLayout;shadow=1;" vertex="1" parent="F0niB3dLpaSPnQFFP66Y-1">
          <mxGeometry x="474" y="-690" width="60" height="40" as="geometry" />
        </mxCell>
        <mxCell id="F0niB3dLpaSPnQFFP66Y-24" value="" style="shape=tableRow;horizontal=0;startSize=0;swimlaneHead=0;swimlaneBody=0;top=0;left=0;bottom=0;right=0;collapsible=0;dropTarget=0;fillColor=none;points=[[0,0.5],[1,0.5]];portConstraint=eastwest;shadow=1;" vertex="1" parent="F0niB3dLpaSPnQFFP66Y-23">
          <mxGeometry width="60" height="40" as="geometry" />
        </mxCell>
        <mxCell id="F0niB3dLpaSPnQFFP66Y-25" value="" style="shape=partialRectangle;html=1;whiteSpace=wrap;connectable=0;overflow=hidden;fillColor=none;top=0;left=0;bottom=0;right=0;pointerEvents=1;shadow=1;" vertex="1" parent="F0niB3dLpaSPnQFFP66Y-24">
          <mxGeometry width="60" height="40" as="geometry">
            <mxRectangle width="60" height="40" as="alternateBounds" />
          </mxGeometry>
        </mxCell>
        <mxCell id="F0niB3dLpaSPnQFFP66Y-26" value="&lt;b&gt;0,SIGNAL&lt;/b&gt;" style="text;html=1;strokeColor=none;fillColor=none;align=center;verticalAlign=middle;whiteSpace=wrap;rounded=0;shadow=1;fontFamily=Comic Sans MS;fontSize=16;" vertex="1" parent="F0niB3dLpaSPnQFFP66Y-1">
          <mxGeometry x="454" y="-627.5" width="100" height="35" as="geometry" />
        </mxCell>
        <mxCell id="F0niB3dLpaSPnQFFP66Y-27" value="" style="shape=flexArrow;endArrow=classic;html=1;rounded=0;fontFamily=Comic Sans MS;fontSize=16;fillColor=#1ba1e2;strokeColor=#006EAF;sketch=1;" edge="1" parent="F0niB3dLpaSPnQFFP66Y-1">
          <mxGeometry width="50" height="50" relative="1" as="geometry">
            <mxPoint x="540" y="-320" as="sourcePoint" />
            <mxPoint x="540" y="-210" as="targetPoint" />
          </mxGeometry>
        </mxCell>
        <mxCell id="F0niB3dLpaSPnQFFP66Y-28" value="" style="shape=table;startSize=0;container=1;collapsible=0;childLayout=tableLayout;shadow=1;" vertex="1" parent="F0niB3dLpaSPnQFFP66Y-1">
          <mxGeometry x="450" y="-49.72" width="60" height="40" as="geometry" />
        </mxCell>
        <mxCell id="F0niB3dLpaSPnQFFP66Y-29" value="" style="shape=tableRow;horizontal=0;startSize=0;swimlaneHead=0;swimlaneBody=0;top=0;left=0;bottom=0;right=0;collapsible=0;dropTarget=0;fillColor=none;points=[[0,0.5],[1,0.5]];portConstraint=eastwest;shadow=1;" vertex="1" parent="F0niB3dLpaSPnQFFP66Y-28">
          <mxGeometry width="60" height="40" as="geometry" />
        </mxCell>
        <mxCell id="F0niB3dLpaSPnQFFP66Y-30" value="&lt;font style=&quot;font-size: 18px;&quot; face=&quot;Comic Sans MS&quot;&gt;&lt;b&gt;1&lt;/b&gt;&lt;/font&gt;" style="shape=partialRectangle;html=1;whiteSpace=wrap;connectable=0;overflow=hidden;fillColor=none;top=0;left=0;bottom=0;right=0;pointerEvents=1;shadow=1;" vertex="1" parent="F0niB3dLpaSPnQFFP66Y-29">
          <mxGeometry width="60" height="40" as="geometry">
            <mxRectangle width="60" height="40" as="alternateBounds" />
          </mxGeometry>
        </mxCell>
        <mxCell id="F0niB3dLpaSPnQFFP66Y-31" style="edgeStyle=orthogonalEdgeStyle;rounded=0;orthogonalLoop=1;jettySize=auto;html=1;" edge="1" parent="F0niB3dLpaSPnQFFP66Y-1">
          <mxGeometry relative="1" as="geometry">
            <mxPoint x="560" y="-30" as="targetPoint" />
            <mxPoint x="510" y="-30" as="sourcePoint" />
          </mxGeometry>
        </mxCell>
        <mxCell id="F0niB3dLpaSPnQFFP66Y-32" style="edgeStyle=orthogonalEdgeStyle;rounded=0;orthogonalLoop=1;jettySize=auto;html=1;" edge="1" parent="F0niB3dLpaSPnQFFP66Y-1">
          <mxGeometry relative="1" as="geometry">
            <mxPoint x="510" y="-20" as="targetPoint" />
            <mxPoint x="560" y="-20" as="sourcePoint" />
          </mxGeometry>
        </mxCell>
        <mxCell id="F0niB3dLpaSPnQFFP66Y-33" style="edgeStyle=orthogonalEdgeStyle;rounded=0;orthogonalLoop=1;jettySize=auto;html=1;entryX=0.487;entryY=-0.007;entryDx=0;entryDy=0;entryPerimeter=0;" edge="1" parent="F0niB3dLpaSPnQFFP66Y-1" source="F0niB3dLpaSPnQFFP66Y-34" target="F0niB3dLpaSPnQFFP66Y-29">
          <mxGeometry relative="1" as="geometry" />
        </mxCell>
        <mxCell id="F0niB3dLpaSPnQFFP66Y-34" value="&lt;font style=&quot;font-size: 16px;&quot; face=&quot;Comic Sans MS&quot;&gt;&lt;b&gt;head&lt;/b&gt;&lt;/font&gt;" style="text;html=1;strokeColor=#999999;fillColor=#f5f5f5;align=center;verticalAlign=middle;whiteSpace=wrap;rounded=1;shadow=1;fontColor=#333333;" vertex="1" parent="F0niB3dLpaSPnQFFP66Y-1">
          <mxGeometry x="450" y="-149.72" width="60" height="30" as="geometry" />
        </mxCell>
        <mxCell id="F0niB3dLpaSPnQFFP66Y-35" style="edgeStyle=orthogonalEdgeStyle;rounded=0;orthogonalLoop=1;jettySize=auto;html=1;entryX=0.487;entryY=-0.007;entryDx=0;entryDy=0;entryPerimeter=0;fontFamily=Comic Sans MS;fontSize=16;" edge="1" parent="F0niB3dLpaSPnQFFP66Y-1" source="F0niB3dLpaSPnQFFP66Y-36">
          <mxGeometry relative="1" as="geometry">
            <mxPoint x="589.2199999999998" y="-50" as="targetPoint" />
          </mxGeometry>
        </mxCell>
        <mxCell id="F0niB3dLpaSPnQFFP66Y-36" value="&lt;font style=&quot;font-size: 16px;&quot; face=&quot;Comic Sans MS&quot;&gt;&lt;b&gt;tail&lt;/b&gt;&lt;/font&gt;" style="text;html=1;strokeColor=#999999;fillColor=#f5f5f5;align=center;verticalAlign=middle;whiteSpace=wrap;rounded=1;shadow=1;fontColor=#333333;" vertex="1" parent="F0niB3dLpaSPnQFFP66Y-1">
          <mxGeometry x="560" y="-149.72000000000003" width="60" height="30" as="geometry" />
        </mxCell>
        <mxCell id="F0niB3dLpaSPnQFFP66Y-37" value="" style="shape=table;startSize=0;container=1;collapsible=0;childLayout=tableLayout;shadow=1;" vertex="1" parent="F0niB3dLpaSPnQFFP66Y-1">
          <mxGeometry x="560" y="-50" width="60" height="40" as="geometry" />
        </mxCell>
        <mxCell id="F0niB3dLpaSPnQFFP66Y-38" value="" style="shape=tableRow;horizontal=0;startSize=0;swimlaneHead=0;swimlaneBody=0;top=0;left=0;bottom=0;right=0;collapsible=0;dropTarget=0;fillColor=none;points=[[0,0.5],[1,0.5]];portConstraint=eastwest;shadow=1;" vertex="1" parent="F0niB3dLpaSPnQFFP66Y-37">
          <mxGeometry width="60" height="40" as="geometry" />
        </mxCell>
        <mxCell id="F0niB3dLpaSPnQFFP66Y-39" value="&lt;font face=&quot;Comic Sans MS&quot;&gt;&lt;b&gt;node&lt;/b&gt;&lt;/font&gt;" style="shape=partialRectangle;html=1;whiteSpace=wrap;connectable=0;overflow=hidden;fillColor=none;top=0;left=0;bottom=0;right=0;pointerEvents=1;shadow=1;" vertex="1" parent="F0niB3dLpaSPnQFFP66Y-38">
          <mxGeometry width="60" height="40" as="geometry">
            <mxRectangle width="60" height="40" as="alternateBounds" />
          </mxGeometry>
        </mxCell>
        <mxCell id="K83DqFCTHCu8nVq9hThN-0" value="" style="endArrow=classic;html=1;rounded=0;fillColor=#f8cecc;strokeColor=#b85450;" edge="1" parent="F0niB3dLpaSPnQFFP66Y-1">
          <mxGeometry width="50" height="50" relative="1" as="geometry">
            <mxPoint x="654" y="-390" as="sourcePoint" />
            <mxPoint x="554" y="-390.5" as="targetPoint" />
          </mxGeometry>
        </mxCell>
      </root>
    </mxGraphModel>
  </diagram>
</mxfile>
